<?xml version="1.0" encoding="UTF-8"?>
<svg version="1.1" xmlns="http://www.w3.org/2000/svg" width="159" height="109">
<path d="M0 0 C0 4.62 0 9.24 0 14 C17.95128985 16.39338114 17.95128985 16.39338114 34.08984375 10.625 C36.75728083 7.99783087 39.00277929 5.17152442 41.25 2.18359375 C42.65942383 0.33374023 42.65942383 0.33374023 44 -1 C47.94273261 -1.18258675 48.86463893 -0.12332898 51.8125 2.5625 C52.8953125 3.7690625 52.8953125 3.7690625 54 5 C52.62845496 7.95409701 51.01136276 10.44008376 49 13 C49.8142041 13.2693335 50.6284082 13.53866699 51.46728516 13.81616211 C54 16 54 16 54.45379639 18.15652466 C54.59762803 21.09566504 54.58695344 23.9993147 54.5234375 26.94140625 C54.51873444 28.02002426 54.51403137 29.09864227 54.50918579 30.20994568 C54.48780135 33.66144127 54.43115425 37.11141322 54.375 40.5625 C54.35849882 42.89256372 54.34414923 45.22264374 54.33203125 47.55273438 C54.29802392 51.80952344 54.2632693 56.06615462 54.19287109 60.32250977 C54.18001068 61.17949966 54.16715027 62.03648956 54.15390015 62.91944885 C54 65 54 65 53 67 C47.36013679 68.18497126 41.74401746 68.15477482 36 68.125 C35.02756348 68.12089111 34.05512695 68.11678223 33.05322266 68.11254883 C29.70186382 68.08830895 26.35111815 68.0469357 23 68 C22.34930542 67.99139954 21.69861084 67.98279907 21.02819824 67.97393799 C16.83685085 67.91637345 12.64655977 67.83754295 8.45605469 67.73553467 C7.07562176 67.70367167 5.69507252 67.6764834 4.31445312 67.65411377 C2.36298904 67.62075894 0.41191479 67.5666024 -1.5390625 67.51171875 C-2.66521973 67.48553467 -3.79137695 67.45935059 -4.95166016 67.43237305 C-8.90227125 66.87202288 -11.79440383 65.54952391 -14.2734375 62.36328125 C-15.4015912 58.69374905 -15.48390484 54.99633049 -15.625 51.1875 C-15.66222168 50.31673828 -15.69944336 49.44597656 -15.73779297 48.54882812 C-16.14208303 38.03356025 -16.17627311 27.52039422 -16 17 C-15.98324219 15.70964844 -15.96648438 14.41929688 -15.94921875 13.08984375 C-15.75366356 8.5808998 -15.51272432 5.033963 -12.8125 1.3125 C-8.07666739 -2.58140681 -5.44305404 -2.72152702 0 0 Z M-10.87036133 3.38769531 C-12.6419667 7.48455667 -12.25309207 11.39214062 -12.07421875 15.796875 C-12.04777786 16.74564514 -12.02133698 17.69441528 -11.99409485 18.67193604 C-11.90641029 21.69860308 -11.79723295 24.72405992 -11.6875 27.75 C-11.62423311 29.80334222 -11.56236733 31.85672812 -11.50195312 33.91015625 C-11.35088167 38.9407552 -11.18053278 43.97037562 -11 49 C-8.36 48.67 -5.72 48.34 -3 48 C-3 32.82 -3 17.64 -3 2 C-8.58505984 1.40415089 -8.58505984 1.40415089 -10.87036133 3.38769531 Z M45 2 C45 2.99 45 3.98 45 5 C46.98 5.99 46.98 5.99 49 7 C49 6.01 49 5.02 49 4 C47.68 3.34 46.36 2.68 45 2 Z M38 9 C36.4641556 10.56877674 34.94668669 12.15556154 33.4375 13.75 C32.59058594 14.63171875 31.74367187 15.5134375 30.87109375 16.421875 C28.72050278 18.78695227 28.72050278 18.78695227 29.22265625 21.328125 C29.47917969 21.87984375 29.73570313 22.4315625 30 23 C32.96175123 22.38722388 34.38058783 21.74627478 37 20 C37 19.34 37 18.68 37 18 C37.66 18 38.32 18 39 18 C40.6446674 15.53673288 40.6446674 15.53673288 42 13 C40.68 11.68 39.36 10.36 38 9 Z M1 17 C-0.2380014 20.57644848 0.25073929 23.33694766 1 27 C11.04821399 27.16489368 11.04821399 27.16489368 21 26 C21.66 23.36 22.32 20.72 23 18 C15.64424835 17.29223008 8.3905476 16.85284308 1 17 Z M44.625 17.625 C40.42809432 19.82337917 37.67607625 23.23724731 34.5625 26.75 C29.7276537 30.9952309 23.25627497 30.13004794 17.125 30.0625 C16.34125 30.05798828 15.5575 30.05347656 14.75 30.04882812 C12.83329986 30.03714093 10.91663952 30.01920908 9 30 C9 33.63 9 37.26 9 41 C13.14563035 41.19372104 17.29136246 41.38027692 21.4375 41.5625 C23.21350586 41.64661133 23.21350586 41.64661133 25.02539062 41.73242188 C26.15009766 41.78076172 27.27480469 41.82910156 28.43359375 41.87890625 C29.99678345 41.94960327 29.99678345 41.94960327 31.59155273 42.02172852 C33.95184289 42.28172341 33.95184289 42.28172341 35 41 C35.04080783 39.00041636 35.04254356 36.99954746 35 35 C36.32 35 37.64 35 39 35 C38.67 41.6 38.34 48.2 38 55 C29.75 55 21.5 55 13 55 C12.67 54.34 12.34 53.68 12 53 C14.97 53 17.94 53 21 53 C21 50.03 21 47.06 21 44 C17.04 44 13.08 44 9 44 C9 49.61 9 55.22 9 61 C7.515 61.495 7.515 61.495 6 62 C6 51.44 6 40.88 6 30 C3.525 29.505 3.525 29.505 1 29 C0.34 35.93 -0.32 42.86 -1 50 C-3.64 50.66 -6.28 51.32 -9 52 C-11.18018684 53.65371616 -11.18018684 53.65371616 -12 56 C-11.92396944 59.11725281 -11.55516935 60.46826261 -9.29107666 62.63679504 C-6.432917 64.33741794 -4.71631883 64.3308097 -1.40527344 64.2487793 C-0.28441345 64.22853195 0.83644653 64.20828461 1.99127197 64.18742371 C3.79770172 64.13138725 3.79770172 64.13138725 5.640625 64.07421875 C6.87794373 64.04777786 8.11526245 64.02133698 9.39007568 63.99409485 C12.67183138 63.92121614 15.95288422 63.8350523 19.23413086 63.74243164 C22.58553172 63.65110729 25.93726958 63.57753438 29.2890625 63.50195312 C35.85984468 63.35074407 42.43000283 63.18201171 49 63 C49.1685077 58.89856046 49.33265562 54.79695694 49.49609375 50.6953125 C49.54326538 49.54844971 49.59043701 48.40158691 49.63903809 47.2199707 C50.02394172 37.47483198 50.105733 27.75093183 50 18 C47.12138742 16.73643505 47.12138742 16.73643505 44.625 17.625 Z M24 44 C24 46.64 24 49.28 24 52 C27.63 52 31.26 52 35 52 C35 49.36 35 46.72 35 44 C31.37 44 27.74 44 24 44 Z " fill="#040B28" transform="translate(64,23)"/>
<path d="M0 0 C-0.33 0.99 -0.66 1.98 -1 3 C-1.08481773 5.58630224 -1.11598229 8.14478056 -1.09765625 10.73046875 C-1.09553383 11.85609978 -1.09553383 11.85609978 -1.09336853 13.00447083 C-1.0877756 15.3988546 -1.07522444 17.79314453 -1.0625 20.1875 C-1.05748408 21.81184761 -1.05292134 23.43619668 -1.04882812 25.06054688 C-1.03780848 29.04040069 -1.02054873 33.02018444 -1 37 C-0.67 37 -0.34 37 0 37 C0 41.29 0 45.58 0 50 C-6.75 52 -6.75 52 -9 52 C-10.53656962 54.4404341 -11.02089707 55.70744102 -10.8125 58.625 C-10.1535811 61.33651167 -10.1535811 61.33651167 -7 63 C-4.92101278 63.2884883 -4.92101278 63.2884883 -2.62036133 63.22705078 C-1.73967484 63.22689972 -0.85898834 63.22674866 0.04838562 63.22659302 C0.99534805 63.21627045 1.94231049 63.20594788 2.91796875 63.1953125 C3.89034988 63.1924826 4.86273102 63.18965271 5.86457825 63.18673706 C8.97234366 63.17553599 12.07982159 63.15043148 15.1875 63.125 C17.29361563 63.11497011 19.39973578 63.10584427 21.50585938 63.09765625 C26.6706838 63.07559688 31.83529315 63.04106746 37 63 C37 63.33 37 63.66 37 64 C32.545 64.495 32.545 64.495 28 65 C30.31 65.33 32.62 65.66 35 66 C35 66.33 35 66.66 35 67 C26.35084771 67.95317606 17.81293504 68.09301793 9.12475586 67.81298828 C7.04095185 67.74934185 4.95741582 67.70839465 2.87304688 67.66796875 C1.53120936 67.62897841 0.18940956 67.58866275 -1.15234375 67.546875 C-2.34851318 67.51432617 -3.54468262 67.48177734 -4.77709961 67.44824219 C-8.82140707 66.8857584 -11.73317167 65.62822415 -14.2734375 62.36328125 C-15.4015912 58.69374905 -15.48390484 54.99633049 -15.625 51.1875 C-15.66222168 50.31673828 -15.69944336 49.44597656 -15.73779297 48.54882812 C-16.14208303 38.03356025 -16.17627311 27.52039422 -16 17 C-15.98324219 15.70964844 -15.96648438 14.41929688 -15.94921875 13.08984375 C-15.75366356 8.5808998 -15.51272432 5.033963 -12.8125 1.3125 C-8.49496558 -2.23747275 -4.81975195 -3.15137628 0 0 Z M-10.87036133 3.38769531 C-12.6419667 7.48455667 -12.25309207 11.39214062 -12.07421875 15.796875 C-12.04777786 16.74564514 -12.02133698 17.69441528 -11.99409485 18.67193604 C-11.90641029 21.69860308 -11.79723295 24.72405992 -11.6875 27.75 C-11.62423311 29.80334222 -11.56236733 31.85672812 -11.50195312 33.91015625 C-11.35088167 38.9407552 -11.18053278 43.97037562 -11 49 C-8.36 48.67 -5.72 48.34 -3 48 C-3 32.82 -3 17.64 -3 2 C-8.58505984 1.40415089 -8.58505984 1.40415089 -10.87036133 3.38769531 Z " fill="#030512" transform="translate(64,23)"/>
<path d="M0 0 C0.33 1.32 0.66 2.64 1 4 C0.360625 4.12375 -0.27875 4.2475 -0.9375 4.375 C-1.618125 4.58125 -2.29875 4.7875 -3 5 C-3.33 5.66 -3.66 6.32 -4 7 C-1.03 7 1.94 7 5 7 C5 7.33 5 7.66 5 8 C-6.52164009 8.18451025 -6.52164009 8.18451025 -12 7 C-12 10.63 -12 14.26 -12 18 C-3.75 18 4.5 18 13 18 C13.33 16.02 13.66 14.04 14 12 C15.32 12 16.64 12 18 12 C18.02888146 15.31248187 18.04675799 18.62493167 18.0625 21.9375 C18.07087891 22.88302734 18.07925781 23.82855469 18.08789062 24.80273438 C18.09111328 25.70185547 18.09433594 26.60097656 18.09765625 27.52734375 C18.10289307 28.35999756 18.10812988 29.19265137 18.11352539 30.05053711 C18 32 18 32 17 33 C15.14630389 33.08737645 13.28932459 33.10698153 11.43359375 33.09765625 C10.30888672 33.09443359 9.18417969 33.09121094 8.02539062 33.08789062 C6.84138672 33.07951172 5.65738281 33.07113281 4.4375 33.0625 C3.24962891 33.05798828 2.06175781 33.05347656 0.83789062 33.04882812 C-2.10812226 33.03699675 -5.05403681 33.02051287 -8 33 C-8.495 31.515 -8.495 31.515 -9 30 C-6.03 30 -3.06 30 0 30 C0 27.03 0 24.06 0 21 C-3.96 21 -7.92 21 -12 21 C-11.67 26.61 -11.34 32.22 -11 38 C-12.98 38.495 -12.98 38.495 -15 39 C-15 28.44 -15 17.88 -15 7 C-16.32 7 -17.64 7 -19 7 C-19.33 8.65 -19.66 10.3 -20 12 C-20.33 12 -20.66 12 -21 12 C-21 8.37 -21 4.74 -21 1 C-19.02 1.99 -19.02 1.99 -17 3 C-14.97624851 3.2712728 -14.97624851 3.2712728 -12.890625 3.1953125 C-12.13652344 3.18886719 -11.38242188 3.18242188 -10.60546875 3.17578125 C-9.82816406 3.15902344 -9.05085938 3.14226563 -8.25 3.125 C-7.45722656 3.11597656 -6.66445312 3.10695312 -5.84765625 3.09765625 C-3.89830719 3.07417012 -1.94911425 3.03830137 0 3 C0 2.01 0 1.02 0 0 Z M3 21 C3 23.64 3 26.28 3 29 C6.63 29 10.26 29 14 29 C14 26.36 14 23.72 14 21 C10.37 21 6.74 21 3 21 Z " fill="#02030F" transform="translate(85,46)"/>
<path d="M0 0 C0.99 0 1.98 0 3 0 C3 2.31 3 4.62 3 7 C4.98 7.66 6.96 8.32 9 9 C9.02529373 15.94172388 9.04284304 22.88343594 9.05493164 29.82519531 C9.05996959 32.18815556 9.06680008 34.55111268 9.07543945 36.9140625 C9.08752854 40.30469535 9.09323359 43.69528709 9.09765625 47.0859375 C9.10281754 48.14743011 9.10797882 49.20892273 9.11329651 50.30258179 C9.11337204 51.28344757 9.11344757 52.26431335 9.11352539 53.27490234 C9.115746 54.14094086 9.11796661 55.00697937 9.12025452 55.89926147 C9 58 9 58 8 60 C0.25804962 61.61290633 -6.51307829 61.49564057 -14 59 C-17.00834121 58.83121518 -19.99041774 58.87961671 -23 59 C-23.33 58.34 -23.66 57.68 -24 57 C-21.58360372 56.82827641 -19.16701489 56.66259918 -16.75 56.5 C-16.08742188 56.45230469 -15.42484375 56.40460938 -14.7421875 56.35546875 C-8.45370495 55.9401916 -2.35089497 56 4 56 C4 41.15 4 26.3 4 11 C-2.63019987 10.35284977 -2.63019987 10.35284977 -6 13 C-5.67 11.35 -5.34 9.7 -5 8 C-4.01 7.67 -3.02 7.34 -2 7 C-2.99 5.02 -3.98 3.04 -5 1 C-2.525 1.495 -2.525 1.495 0 2 C0 1.34 0 0.68 0 0 Z " fill="#01010D" transform="translate(109,30)"/>
<path d="M0 0 C0.33 1.32 0.66 2.64 1 4 C0.360625 4.12375 -0.27875 4.2475 -0.9375 4.375 C-1.618125 4.58125 -2.29875 4.7875 -3 5 C-3.33 5.66 -3.66 6.32 -4 7 C-1.03 7 1.94 7 5 7 C5 7.33 5 7.66 5 8 C-6.52164009 8.18451025 -6.52164009 8.18451025 -12 7 C-12 10.63 -12 14.26 -12 18 C-8.7 18 -5.4 18 -2 18 C-2.66 18.99 -3.32 19.98 -4 21 C-6.64 21 -9.28 21 -12 21 C-11.67 26.61 -11.34 32.22 -11 38 C-12.98 38.495 -12.98 38.495 -15 39 C-15 28.44 -15 17.88 -15 7 C-16.32 7 -17.64 7 -19 7 C-19.33 8.65 -19.66 10.3 -20 12 C-20.33 12 -20.66 12 -21 12 C-21 8.37 -21 4.74 -21 1 C-19.02 1.99 -19.02 1.99 -17 3 C-14.97624851 3.2712728 -14.97624851 3.2712728 -12.890625 3.1953125 C-12.13652344 3.18886719 -11.38242188 3.18242188 -10.60546875 3.17578125 C-9.82816406 3.15902344 -9.05085938 3.14226563 -8.25 3.125 C-7.45722656 3.11597656 -6.66445312 3.10695312 -5.84765625 3.09765625 C-3.89830719 3.07417012 -1.94911425 3.03830137 0 3 C0 2.01 0 1.02 0 0 Z " fill="#010107" transform="translate(85,46)"/>
<path d="M0 0 C3.09640099 1.43361767 5.00918802 3.53211308 7.26953125 6.05078125 C5.82699468 9.41669991 3.93688398 11.56125204 1.26953125 14.05078125 C1.26953125 12.07078125 1.26953125 10.09078125 1.26953125 8.05078125 C0.27953125 8.05078125 -0.71046875 8.05078125 -1.73046875 8.05078125 C-1.73046875 8.71078125 -1.73046875 9.37078125 -1.73046875 10.05078125 C-3.05046875 10.05078125 -4.37046875 10.05078125 -5.73046875 10.05078125 C-5.07046875 11.70078125 -4.41046875 13.35078125 -3.73046875 15.05078125 C-5.38046875 13.73078125 -7.03046875 12.41078125 -8.73046875 11.05078125 C-10.07574368 12.45611309 -11.40634185 13.87550577 -12.73046875 15.30078125 C-13.47296875 16.0896875 -14.21546875 16.87859375 -14.98046875 17.69140625 C-17.12762625 20.09664441 -17.12762625 20.09664441 -16.73046875 24.05078125 C-12.49961972 22.36270217 -12.49961972 22.36270217 -9.73046875 19.05078125 C-8.41046875 19.05078125 -7.09046875 19.05078125 -5.73046875 19.05078125 C-5.40046875 18.72078125 -5.07046875 18.39078125 -4.73046875 18.05078125 C-3.0642976 18.01014293 -1.3965878 18.00806025 0.26953125 18.05078125 C-1.75874682 19.06492028 -3.75742864 20.06188238 -5.85546875 20.92578125 C-8.18652229 22.32441337 -8.56145731 23.63969516 -9.73046875 26.05078125 C-11.85546875 27.80078125 -11.85546875 27.80078125 -13.73046875 29.05078125 C-13.40046875 27.73078125 -13.07046875 26.41078125 -12.73046875 25.05078125 C-13.72046875 25.38078125 -14.71046875 25.71078125 -15.73046875 26.05078125 C-17.05046875 24.73078125 -18.37046875 23.41078125 -19.73046875 22.05078125 C-19.07046875 20.73078125 -18.41046875 19.41078125 -17.73046875 18.05078125 C-18.72046875 17.39078125 -19.71046875 16.73078125 -20.73046875 16.05078125 C-19.6940625 15.51710938 -19.6940625 15.51710938 -18.63671875 14.97265625 C-14.29449544 12.10118599 -11.02384047 8.28555691 -7.546875 4.4375 C-3.38767861 0.06300404 -3.38767861 0.06300404 0 0 Z M-1.73046875 3.05078125 C-1.73046875 4.04078125 -1.73046875 5.03078125 -1.73046875 6.05078125 C0.24953125 7.04078125 0.24953125 7.04078125 2.26953125 8.05078125 C2.26953125 7.06078125 2.26953125 6.07078125 2.26953125 5.05078125 C0.94953125 4.39078125 -0.37046875 3.73078125 -1.73046875 3.05078125 Z " fill="#020521" transform="translate(110.73046875,21.94921875)"/>
<path d="M0 0 C1.99307681 2.98961521 2.2731443 3.77870088 2.44921875 7.16015625 C2.49240234 7.95357422 2.53558594 8.74699219 2.58007812 9.56445312 C2.61552734 10.38880859 2.65097656 11.21316406 2.6875 12.0625 C2.73455078 12.89072266 2.78160156 13.71894531 2.83007812 14.57226562 C3.13564605 20.7287079 3.13564605 20.7287079 2 23 C-5.74195038 24.61290633 -12.51307829 24.49564057 -20 22 C-23.00834121 21.83121518 -25.99041774 21.87961671 -29 22 C-29.33 21.34 -29.66 20.68 -30 20 C-20.64538429 19.33520497 -11.38554713 18.88268066 -2 19 C-2 13.72 -2 8.44 -2 3 C-1.34 3 -0.68 3 0 3 C0 2.01 0 1.02 0 0 Z " fill="#0B0E1D" transform="translate(115,67)"/>
<path d="M0 0 C0.33 0 0.66 0 1 0 C1.33 9.24 1.66 18.48 2 28 C2.33 28 2.66 28 3 28 C3.02685938 30.14576637 3.04633088 32.29162645 3.0625 34.4375 C3.07410156 35.63246094 3.08570312 36.82742187 3.09765625 38.05859375 C3 41 3 41 2 42 C0.33382885 42.04063832 -1.33388095 42.042721 -3 42 C-3 41.01 -3 40.02 -3 39 C-2.01 39 -1.02 39 0 39 C-0.0721875 38.40574219 -0.144375 37.81148437 -0.21875 37.19921875 C-1.61239897 24.75315922 -0.76761684 12.46006614 0 0 Z " fill="#01020D" transform="translate(61,32)"/>
<path d="M0 0 C0.66 0 1.32 0 2 0 C2.2475 0.639375 2.495 1.27875 2.75 1.9375 C3.80462101 4.15102303 3.80462101 4.15102303 5.9375 4.75 C8.15010085 5.06016568 8.15010085 5.06016568 11 5 C9.484375 7.9765625 9.484375 7.9765625 7 11 C4.10405649 11.46211865 2.09502976 11.584747 -0.75 11.375 C-1.44738281 11.34792969 -2.14476563 11.32085937 -2.86328125 11.29296875 C-4.57685705 11.22254783 -6.28883302 11.11492913 -8 11 C-7.67 10.01 -7.34 9.02 -7 8 C-5.35 8 -3.7 8 -2 8 C-2 7.01 -2 6.02 -2 5 C-1.34 5 -0.68 5 0 5 C0 5.99 0 6.98 0 8 C0.99 8 1.98 8 3 8 C2.24849977 4.72226496 2.24849977 4.72226496 -1 3 C-0.67 2.01 -0.34 1.02 0 0 Z " fill="#181F35" transform="translate(89,42)"/>
<path d="M0 0 C1.32 0 2.64 0 4 0 C3.86177801 3.14621682 3.71314916 6.29185566 3.5625 9.4375 C3.50352539 10.78424805 3.50352539 10.78424805 3.44335938 12.15820312 C3.40146484 13.01220703 3.35957031 13.86621094 3.31640625 14.74609375 C3.26141968 15.93223267 3.26141968 15.93223267 3.20532227 17.14233398 C3 19 3 19 2 20 C0.48071962 20.07179964 -1.04167482 20.08392007 -2.5625 20.0625 C-3.38878906 20.05347656 -4.21507813 20.04445313 -5.06640625 20.03515625 C-6.02353516 20.01775391 -6.02353516 20.01775391 -7 20 C-7 19.34 -7 18.68 -7 18 C-4.36 18 -1.72 18 1 18 C1 15.03 1 12.06 1 9 C0.01 8.67 -0.98 8.34 -2 8 C-1.34 5.36 -0.68 2.72 0 0 Z " fill="#050719" transform="translate(99,58)"/>
<path d="M0 0 C0.99 0 1.98 0 3 0 C3.33 3.3 3.66 6.6 4 10 C2.3603125 10.185625 2.3603125 10.185625 0.6875 10.375 C-3.07381802 10.75464801 -3.07381802 10.75464801 -6 13 C-5.67 11.35 -5.34 9.7 -5 8 C-4.01 7.67 -3.02 7.34 -2 7 C-2.99 5.02 -3.98 3.04 -5 1 C-3.35 1.33 -1.7 1.66 0 2 C0 1.34 0 0.68 0 0 Z " fill="#111A41" transform="translate(109,30)"/>
<path d="M0 0 C2.46751239 3.70126859 2.30721156 5.62223532 2 10 C1.0625 12.0625 1.0625 12.0625 0 14 C-0.33 15.98 -0.66 17.96 -1 20 C-5.29 20 -9.58 20 -14 20 C-14 19.67 -14 19.34 -14 19 C-10.04 19 -6.08 19 -2 19 C-2 13.72 -2 8.44 -2 3 C-1.34 3 -0.68 3 0 3 C0 2.01 0 1.02 0 0 Z " fill="#04051A" transform="translate(115,67)"/>
<path d="M0 0 C0.66 0.33 1.32 0.66 2 1 C2.08086147 2.79093191 2.13912702 4.58289628 2.1875 6.375 C2.22230469 7.37273438 2.25710937 8.37046875 2.29296875 9.3984375 C2.19628906 10.25695313 2.09960938 11.11546875 2 12 C1.01 12.66 0.02 13.32 -1 14 C-1.22226864 12.23086176 -1.42733873 10.45955629 -1.625 8.6875 C-1.74101563 7.70136719 -1.85703125 6.71523438 -1.9765625 5.69921875 C-2 3 -2 3 0 0 Z " fill="#393B52" transform="translate(116,50)"/>
<path d="M0 0 C2 2 2 2 2.1875 5.0625 C2 8 2 8 1 9 C-0.51928038 9.07179964 -2.04167482 9.08392007 -3.5625 9.0625 C-4.38878906 9.05347656 -5.21507813 9.04445313 -6.06640625 9.03515625 C-6.70449219 9.02355469 -7.34257813 9.01195313 -8 9 C-8 8.34 -8 7.68 -8 7 C-5.36 7 -2.72 7 0 7 C0 4.69 0 2.38 0 0 Z " fill="#1C2038" transform="translate(100,69)"/>
<path d="M0 0 C1.32 0.33 2.64 0.66 4 1 C2.55746343 4.36591866 0.66735273 6.51047079 -2 9 C-2.25 3.375 -2.25 3.375 0 0 Z " fill="#030633" transform="translate(114,27)"/>
<path d="M0 0 C2.09566561 4.19133122 2.15337517 5.31164853 1.625 9.75 C1.51414062 10.73484375 1.40328125 11.7196875 1.2890625 12.734375 C1.19367188 13.48203125 1.09828125 14.2296875 1 15 C0.01 14.67 -0.98 14.34 -2 14 C-1.34 9.38 -0.68 4.76 0 0 Z " fill="#1F2142" transform="translate(115,74)"/>
<path d="M0 0 C2.47342266 3.71013399 2.38503486 5.61060262 2 10 C0.48046875 12.22265625 0.48046875 12.22265625 -1 14 C-1.02705729 12.22925083 -1.04642195 10.45838289 -1.0625 8.6875 C-1.07410156 7.70136719 -1.08570312 6.71523437 -1.09765625 5.69921875 C-1 3 -1 3 0 0 Z " fill="#0D102B" transform="translate(115,67)"/>
<path d="M0 0 C0.66 0 1.32 0 2 0 C2.042721 1.66611905 2.04063832 3.33382885 2 5 C1 6 1 6 -1.5625 6.0625 C-2.7690625 6.0315625 -2.7690625 6.0315625 -4 6 C-4 5.01 -4 4.02 -4 3 C-3.01 3 -2.02 3 -1 3 C-0.67 2.01 -0.34 1.02 0 0 Z " fill="#010104" transform="translate(62,68)"/>
<path d="M0 0 C4.75 1.875 4.75 1.875 7 3 C6.67 4.32 6.34 5.64 6 7 C3 6 3 6 1.3125 2.9375 C0.879375 1.968125 0.44625 0.99875 0 0 Z " fill="#152659" transform="translate(104,31)"/>
<path d="M0 0 C0.66 0.33 1.32 0.66 2 1 C0.75 3.5 0.75 3.5 -1 6 C-2.32 6 -3.64 6 -5 6 C-4.75 4.125 -4.75 4.125 -4 2 C-2.0625 0.6875 -2.0625 0.6875 0 0 Z " fill="#1F2747" transform="translate(98,46)"/>
<path d="M0 0 C0.66 0 1.32 0 2 0 C2.28875 0.61875 2.5775 1.2375 2.875 1.875 C3.93720042 4.13325765 3.93720042 4.13325765 6 6 C5.01 6.66 4.02 7.32 3 8 C2.67 7.01 2.34 6.02 2 5 C1.01 4.34 0.02 3.68 -1 3 C-0.67 2.01 -0.34 1.02 0 0 Z " fill="#121E45" transform="translate(89,42)"/>
<path d="M0 0 C0.99 0 1.98 0 3 0 C3 2.64 3 5.28 3 8 C2.34 7.67 1.68 7.34 1 7 C1.33 6.01 1.66 5.02 2 4 C0.68 3.34 -0.64 2.68 -2 2 C-1.34 2 -0.68 2 0 2 C0 1.34 0 0.68 0 0 Z " fill="#041148" transform="translate(109,30)"/>
</svg>
