<?xml version="1.0" encoding="UTF-8"?>
<svg version="1.1" xmlns="http://www.w3.org/2000/svg" width="143" height="108">
<path d="M0 0 C6.00819078 5.02162415 9.02632982 9.80555197 11.50390625 17.23828125 C11.65208896 19.58925701 11.72515184 21.94531562 11.75390625 24.30078125 C11.7796875 25.54988281 11.80546875 26.79898438 11.83203125 28.0859375 C11.6699616 33.03765653 10.08443225 37.5795438 8.50390625 42.23828125 C9.10976562 42.81271973 9.715625 43.3871582 10.33984375 43.97900391 C12.5883154 46.12499714 14.82279766 48.2843693 17.04882812 50.45361328 C18.48708522 51.84698517 19.94074806 53.22439761 21.39453125 54.6015625 C22.296875 55.48457031 23.19921875 56.36757812 24.12890625 57.27734375 C24.96679688 58.08381348 25.8046875 58.8902832 26.66796875 59.72119141 C28.92481719 62.81535463 28.95785836 64.48861073 28.50390625 68.23828125 C27.44140625 70.11328125 27.44140625 70.11328125 25.50390625 71.23828125 C21.43393688 71.66160376 19.27992759 71.77987572 15.87329102 69.40234375 C15.07205811 68.56445312 14.2708252 67.7265625 13.4453125 66.86328125 C12.56552734 65.9609375 11.68574219 65.05859375 10.77929688 64.12890625 C9.88404297 63.175 8.98878906 62.22109375 8.06640625 61.23828125 C7.13641369 60.2731488 6.20478719 59.30958798 5.27148438 58.34765625 C2.99907528 55.99282817 0.74458094 53.62325983 -1.49609375 51.23828125 C-2.30361084 51.52123047 -3.11112793 51.80417969 -3.94311523 52.09570312 C-5.01118408 52.46244141 -6.07925293 52.82917969 -7.1796875 53.20703125 C-8.23470459 53.57248047 -9.28972168 53.93792969 -10.37670898 54.31445312 C-18.93550793 56.84920269 -26.62701036 55.21994321 -34.49609375 51.23828125 C-42.063146 46.27079457 -46.59226642 39.38629889 -48.87109375 30.67578125 C-50.43934834 21.95990476 -47.91259034 13.66826173 -43.25 6.2578125 C-32.29822344 -7.79645034 -14.36903266 -10.14152383 0 0 Z M-28.49609375 0.23828125 C-29.48609375 0.60953125 -30.47609375 0.98078125 -31.49609375 1.36328125 C-37.73134724 5.26031468 -42.51552787 11.13154486 -44.49609375 18.23828125 C-45.51700865 26.97914811 -44.71561285 34.01223169 -39.49609375 41.23828125 C-34.5532486 47.03598654 -29.04516211 50.15345217 -21.49609375 51.23828125 C-13.15524659 51.72751549 -7.06728825 49.30153373 -0.49609375 44.23828125 C1.95588669 41.82238175 1.95588669 41.82238175 3.50390625 39.23828125 C4.06078125 38.41328125 4.61765625 37.58828125 5.19140625 36.73828125 C8.55073621 30.33955752 8.37083734 22.52940456 6.44140625 15.67578125 C4.04577685 9.27251015 -0.30257699 4.19358958 -6.24609375 0.80078125 C-13.43407746 -2.33959998 -21.20837059 -2.6196494 -28.49609375 0.23828125 Z M3.50390625 45.23828125 C2.51390625 46.72328125 2.51390625 46.72328125 1.50390625 48.23828125 C2.82390625 49.22828125 4.14390625 50.21828125 5.50390625 51.23828125 C6.16390625 49.91828125 6.82390625 48.59828125 7.50390625 47.23828125 C6.18390625 46.57828125 4.86390625 45.91828125 3.50390625 45.23828125 Z M9.50390625 51.23828125 C9.50390625 51.89828125 9.50390625 52.55828125 9.50390625 53.23828125 C8.51390625 53.73328125 8.51390625 53.73328125 7.50390625 54.23828125 C9.57258188 56.44148058 11.65672419 58.625011 13.75390625 60.80078125 C14.34042969 61.42919922 14.92695312 62.05761719 15.53125 62.70507812 C16.10488281 63.29482422 16.67851563 63.88457031 17.26953125 64.4921875 C17.79321289 65.04205322 18.31689453 65.59191895 18.85644531 66.15844727 C20.48955016 67.49012417 20.48955016 67.49012417 22.70605469 66.90991211 C23.2993457 66.68827393 23.89263672 66.46663574 24.50390625 66.23828125 C22.89157825 62.20746125 20.04156029 59.47883988 17.00390625 56.48828125 C16.50503906 55.98167969 16.00617188 55.47507812 15.4921875 54.953125 C12.97328988 52.11022526 12.97328988 52.11022526 9.50390625 51.23828125 Z " fill="#588DC7" transform="translate(80.49609375,24.76171875)"/>
<path d="M0 0 C5.53990448 3.57016067 7.95620698 8.36566522 10.3125 14.3125 C11.49948255 20.67904279 11.21009055 26.48257863 7.9375 32.1875 C4.13619424 37.58820242 -0.36169018 41.91640847 -6.5 44.4375 C-15.02830873 45.80812105 -22.10904462 44.98228986 -29.5625 40.4375 C-30.036875 39.963125 -30.51125 39.48875 -31 39 C-31 38.34 -31 37.68 -31 37 C-31.66 37 -32.32 37 -33 37 C-37.06165909 29.82090516 -40.36224273 23.48681099 -38.296875 15.16796875 C-35.60943143 7.20161816 -32.39017458 2.28630125 -25 -2 C-16.35122455 -5.93126157 -8.02084939 -4.59925689 0 0 Z M-30 7 C-33.69233661 12.10874115 -34.70039929 17.06678325 -34.44921875 23.3203125 C-33.47788455 29.11453215 -30.22234187 32.69237846 -26.3125 36.875 C-20.97558071 40.29868407 -15.18952421 41.68121492 -8.875 40.5625 C-2.66845219 38.59856195 1.749591 34.11006518 5 28.625 C7.00661071 21.35103619 6.63100165 15.74328878 3 9 C-0.23328689 3.43874655 -5.06565796 1.7576236 -11 0 C-17.98203627 -0.97748508 -25.1334562 1.99827443 -30 7 Z " fill="#6F9FCE" transform="translate(76,29)"/>
<path d="M0 0 C0.66 0.33 1.32 0.66 2 1 C2.08247725 3.29103467 2.13984407 5.5829766 2.1875 7.875 C2.22230469 9.15117188 2.25710937 10.42734375 2.29296875 11.7421875 C2.18083558 16.7459795 0.60598531 21.29852477 -1 26 C-0.39414063 26.57443848 0.21171875 27.14887695 0.8359375 27.74072266 C3.08440915 29.88671589 5.31889141 32.04608805 7.54492188 34.21533203 C8.98317897 35.60870392 10.43684181 36.98611636 11.890625 38.36328125 C12.79296875 39.24628906 13.6953125 40.12929687 14.625 41.0390625 C15.46289062 41.84553223 16.30078125 42.65200195 17.1640625 43.48291016 C19.42091094 46.57707338 19.45395211 48.25032948 19 52 C17.9375 53.875 17.9375 53.875 16 55 C11.98770968 55.40371709 9.78155623 55.52505108 6.38525391 53.2434082 C5.59038574 52.43734131 4.79551758 51.63127441 3.9765625 50.80078125 C2.66365234 49.48110352 2.66365234 49.48110352 1.32421875 48.13476562 C0.43347656 47.20341797 -0.45726563 46.27207031 -1.375 45.3125 C-2.28894531 44.40048828 -3.20289062 43.48847656 -4.14453125 42.54882812 C-11.45427212 35.08159655 -11.45427212 35.08159655 -12 30 C-11.01 29.67 -10.02 29.34 -9 29 C-9 30.32 -9 31.64 -9 33 C-7.35 33.33 -5.7 33.66 -4 34 C-4 32.68 -4 31.36 -4 30 C-4 29.01 -4 28.02 -4 27 C-4.99 27 -5.98 27 -7 27 C-6.52651586 22.8333396 -5.95303159 20.07115285 -3 17 C-2.34 17 -1.68 17 -1 17 C-1.01160156 16.02417969 -1.02320312 15.04835938 -1.03515625 14.04296875 C-1.04417969 12.77066406 -1.05320312 11.49835937 -1.0625 10.1875 C-1.07410156 8.92292969 -1.08570312 7.65835938 -1.09765625 6.35546875 C-1 3 -1 3 0 0 Z M0 35 C0 35.66 0 36.32 0 37 C-0.99 37.495 -0.99 37.495 -2 38 C0.06867563 40.20319933 2.15281794 42.38672975 4.25 44.5625 C4.83652344 45.19091797 5.42304687 45.81933594 6.02734375 46.46679688 C6.60097656 47.05654297 7.17460938 47.64628906 7.765625 48.25390625 C8.28930664 48.80377197 8.81298828 49.3536377 9.35253906 49.92016602 C10.98564391 51.25184292 10.98564391 51.25184292 13.20214844 50.67163086 C13.79543945 50.44999268 14.38873047 50.22835449 15 50 C13.387672 45.96918 10.53765404 43.24055863 7.5 40.25 C7.00113281 39.74339844 6.50226563 39.23679687 5.98828125 38.71484375 C3.46938363 35.87194401 3.46938363 35.87194401 0 35 Z " fill="#5188C3" transform="translate(90,41)"/>
<path d="M0 0 C0.66 0.33 1.32 0.66 2 1 C2.32177688 9.93824669 2.33530434 17.56247415 -1 26 C-0.360625 26.53625 0.27875 27.0725 0.9375 27.625 C3.38529404 30.44367193 3.66714612 32.33860732 4 36 C2.68 35.67 1.36 35.34 0 35 C0 35.66 0 36.32 0 37 C-0.99 37 -1.98 37 -3 37 C-2.34 38.32 -1.68 39.64 -1 41 C-3.84698394 40.91626518 -5.551161 40.40889548 -7.66796875 38.48046875 C-12 33.59278504 -12 33.59278504 -12 30 C-11.01 29.67 -10.02 29.34 -9 29 C-9 30.32 -9 31.64 -9 33 C-7.35 33.33 -5.7 33.66 -4 34 C-4 32.68 -4 31.36 -4 30 C-4 29.01 -4 28.02 -4 27 C-4.99 27 -5.98 27 -7 27 C-6.52651586 22.8333396 -5.95303159 20.07115285 -3 17 C-2.34 17 -1.68 17 -1 17 C-1.01160156 16.02417969 -1.02320312 15.04835938 -1.03515625 14.04296875 C-1.04417969 12.77066406 -1.05320312 11.49835937 -1.0625 10.1875 C-1.07410156 8.92292969 -1.08570312 7.65835938 -1.09765625 6.35546875 C-1 3 -1 3 0 0 Z " fill="#4882C2" transform="translate(90,41)"/>
<path d="M0 0 C5.67272662 4.00375541 11.34482268 8.97250986 13 16 C12.72150665 17.67670222 12.3785354 19.34301484 12 21 C11.78301513 23.43505237 11.59709255 25.87301384 11.4375 28.3125 C11.35371094 29.56675781 11.26992187 30.82101563 11.18359375 32.11328125 C11.09271484 33.54220703 11.09271484 33.54220703 11 35 C10.34 35 9.68 35 9 35 C9.03480469 34.16597656 9.06960937 33.33195312 9.10546875 32.47265625 C9.34136999 22.66590484 8.63848365 14.8976964 1.7421875 7.50390625 C-2.47930363 3.85979396 -7.46606156 1.6917423 -13 1 C-11.68 0.67 -10.36 0.34 -9 0 C-9 -0.66 -9 -1.32 -9 -2 C-14.28 -2 -19.56 -2 -25 -2 C-25.33 -1.34 -25.66 -0.68 -26 0 C-26.66 -0.66 -27.32 -1.32 -28 -2 C-17.51599576 -5.8025999 -9.92772435 -5.32445186 0 0 Z " fill="#6F9ED0" transform="translate(78,23)"/>
<path d="M0 0 C0.33 0 0.66 0 1 0 C2.39206518 8.03372554 2.21740155 14.33145084 -2.515625 21.19921875 C-6.77095087 26.38419914 -12.06229392 31.15906593 -19 32 C-21.67271015 32.06720548 -24.32520009 32.04458 -27 32 C-27 31.67 -27 31.34 -27 31 C-25.02 30.67 -23.04 30.34 -21 30 C-23.64 29.34 -26.28 28.68 -29 28 C-25.98262621 27.24565655 -23.65776382 26.87372234 -20.625 26.6875 C-14.93909795 26.08063032 -11.61071629 23.74494265 -7.75 19.5625 C-4.12036734 14.24768074 -3.52025809 9.28417007 -3 3 C-2.67 3 -2.34 3 -2 3 C-1.67 4.98 -1.34 6.96 -1 9 C-0.67 6.03 -0.34 3.06 0 0 Z " fill="#6396CE" transform="translate(85,42)"/>
<path d="M0 0 C0.33 0 0.66 0 1 0 C1.33 3.3 1.66 6.6 2 10 C2.33 7.36 2.66 4.72 3 2 C3.33 2 3.66 2 4 2 C4.01417969 2.6290625 4.02835938 3.258125 4.04296875 3.90625 C4.48215062 11.78778407 6.69815437 16.86747979 12.4375 22.3125 C18.03843092 26.00091792 22.39593786 27.4306843 29 28 C24.72125555 30.8524963 21.02275299 30.61487979 16 30 C13.07945004 29.03441101 10.43313575 27.89949762 8 26 C7.67 25.01 7.34 24.02 7 23 C6.34 23 5.68 23 5 23 C1.20067895 16.28459489 -2.22631322 9.62546857 -0.5078125 1.7421875 C-0.34023438 1.16726562 -0.17265625 0.59234375 0 0 Z " fill="#72A2D4" transform="translate(38,43)"/>
<path d="M0 0 C-0.33 0.66 -0.66 1.32 -1 2 C-4.63 2 -8.26 2 -12 2 C-12 2.66 -12 3.32 -12 4 C-13.57421875 4.97265625 -13.57421875 4.97265625 -15.6875 6.0625 C-20.60864955 9.02915044 -22.98438293 12.66922327 -25 18 C-25.52192737 20.67712747 -25.75693719 23.27769654 -26 26 C-26.66 26.33 -27.32 26.66 -28 27 C-28.62531017 14.32009926 -28.62531017 14.32009926 -26.3125 9.4375 C-25.549375 8.633125 -24.78625 7.82875 -24 7 C-22.7315625 5.63875 -22.7315625 5.63875 -21.4375 4.25 C-16.11978641 -0.6586587 -6.92494024 -3.46247012 0 0 Z " fill="#427BBA" transform="translate(67,27)"/>
<path d="M0 0 C5.86000772 0.63927357 9.8901919 3.78900919 13.9375 7.9375 C15.4375 10.375 15.4375 10.375 15.4375 14.375 C14.1175 14.375 12.7975 14.375 11.4375 14.375 C10.37978261 12.74435236 9.38476954 11.07219127 8.4375 9.375 C5.15452785 6.09202785 1.96676992 5.81050672 -2.5625 5.375 C-3.125 3.4375 -3.125 3.4375 -3.5625 1.375 C-2.5625 0.375 -2.5625 0.375 0 0 Z " fill="#6896CC" transform="translate(63.5625,30.625)"/>
<path d="M0 0 C2.36486037 1.97071698 4.69210587 3.96387658 7 6 C7.74121094 6.6496875 8.48242188 7.299375 9.24609375 7.96875 C14.88508952 13.19562665 14.88508952 13.19562665 15.5 17.5 C15.335 18.325 15.17 19.15 15 20 C14.01 20 13.02 20 12 20 C10.96700775 18.35357818 9.97271972 16.68273412 9 15 C6.68992986 12.7058889 4.29308913 10.5451943 1.86328125 8.37890625 C-0.46770242 5.4028705 -0.36619004 3.68843587 0 0 Z " fill="#578BC4" transform="translate(93,72)"/>
<path d="M0 0 C0.33 0.66 0.66 1.32 1 2 C1.99 2 2.98 2 4 2 C4 4 4 4 2.625 5.5625 C1 7 1 7 -1 8 C-1.33 7.01 -1.66 6.02 -2 5 C-2.66 5 -3.32 5 -4 5 C-3.67 6.32 -3.34 7.64 -3 9 C-4.24735567 9.6509259 -5.49801832 10.29551669 -6.75 10.9375 C-7.44609375 11.29714844 -8.1421875 11.65679687 -8.859375 12.02734375 C-12.73393514 13.78786469 -16.00797902 14.11831607 -20.25 14.0625 C-21.14203125 14.05347656 -22.0340625 14.04445313 -22.953125 14.03515625 C-23.62859375 14.02355469 -24.3040625 14.01195313 -25 14 C-25 13.67 -25 13.34 -25 13 C-21.04 12.34 -17.08 11.68 -13 11 C-14.32 10.34 -15.64 9.68 -17 9 C-16.1646875 8.77957031 -16.1646875 8.77957031 -15.3125 8.5546875 C-9.22054972 6.76414806 -4.84129209 4.07618326 0 0 Z " fill="#7AA9DA" transform="translate(82,66)"/>
<path d="M0 0 C2.820596 0.62679911 4.5421013 1.36718969 6.2578125 3.73828125 C8.59367066 8.07513679 9.14627623 10.14766502 8 15 C7.78301513 17.43505237 7.59709255 19.87301384 7.4375 22.3125 C7.35371094 23.56675781 7.26992187 24.82101563 7.18359375 26.11328125 C7.12300781 27.06589844 7.06242187 28.01851562 7 29 C6.34 29 5.68 29 5 29 C5.05220703 27.74896484 5.05220703 27.74896484 5.10546875 26.47265625 C5.30974244 17.98070732 4.77683424 11.16525136 0 4 C0 2.68 0 1.36 0 0 Z " fill="#5287C2" transform="translate(82,29)"/>
<path d="M0 0 C0.50789063 0.39832031 1.01578125 0.79664063 1.5390625 1.20703125 C8.25639341 6.37711178 13.50309481 9.26750817 22 10 C17.7319123 12.8453918 14.0125878 12.63487857 9 12 C6.07468934 10.92002977 3.70022796 9.60013509 1 8 C1 7.01 1 6.02 1 5 C1.66 5.33 2.32 5.66 3 6 C2.2575 5.071875 2.2575 5.071875 1.5 4.125 C0 2 0 2 0 0 Z " fill="#709DCF" transform="translate(45,61)"/>
<path d="M0 0 C0.33 0 0.66 0 1 0 C2.19815332 6.91464386 2.27810265 12.63891985 -1 19 C-2.609375 20.75390625 -2.609375 20.75390625 -4 22 C-4 21.01 -4 20.02 -4 19 C-4.66 19 -5.32 19 -6 19 C-5.690625 18.030625 -5.38125 17.06125 -5.0625 16.0625 C-3.82032903 11.76335509 -3.38315147 7.44657366 -3 3 C-2.67 3 -2.34 3 -2 3 C-1.67 4.98 -1.34 6.96 -1 9 C-0.67 6.03 -0.34 3.06 0 0 Z " fill="#73A4D8" transform="translate(85,42)"/>
<path d="M0 0 C3.625 1 3.625 1 6 2 C5.67 2.99 5.34 3.98 5 5 C-0.61 5 -6.22 5 -12 5 C-8.91111478 2.94074319 -8.29064073 2.7609626 -4.8125 2.875 C-2.9253125 2.936875 -2.9253125 2.936875 -1 3 C-2.05978933 1.71387324 -2.05978933 1.71387324 -4.50390625 1.90234375 C-5.51324219 1.91394531 -6.52257813 1.92554687 -7.5625 1.9375 C-8.57441406 1.94652344 -9.58632813 1.95554687 -10.62890625 1.96484375 C-11.41136719 1.97644531 -12.19382813 1.98804687 -13 2 C-8.74087527 -0.83941649 -4.9984397 -0.40297498 0 0 Z " fill="#6F9DD3" transform="translate(67,25)"/>
<path d="M0 0 C1.15242188 0.11085938 2.30484375 0.22171875 3.4921875 0.3359375 C4.36101562 0.43132813 5.22984375 0.52671875 6.125 0.625 C6.125 1.285 6.125 1.945 6.125 2.625 C-0.24805598 3.37007544 -6.45811325 3.72849817 -12.875 3.625 C-12.875 2.965 -12.875 2.305 -12.875 1.625 C-8.28267665 -0.20355428 -4.90141732 -0.50014462 0 0 Z " fill="#3873B7" transform="translate(62.875,20.375)"/>
<path d="M0 0 C5.94 0.33 11.88 0.66 18 1 C18.33 1.66 18.66 2.32 19 3 C16.95999027 3.22397733 14.91783811 3.42848537 12.875 3.625 C11.73804688 3.74101563 10.60109375 3.85703125 9.4296875 3.9765625 C5.83488201 4.00112837 3.319329 3.32167811 0 2 C0 1.34 0 0.68 0 0 Z " fill="#2F6CB3" transform="translate(51,75)"/>
<path d="M0 0 C1.3357457 3.77371512 0.72408671 6.85831347 0.0625 10.75 C-0.13214844 11.92046875 -0.32679687 13.0909375 -0.52734375 14.296875 C-0.68332031 15.18890625 -0.83929688 16.0809375 -1 17 C-1.66 16.67 -2.32 16.34 -3 16 C-3.44921875 14.07421875 -3.44921875 14.07421875 -3.6875 11.6875 C-3.77386719 10.90761719 -3.86023438 10.12773438 -3.94921875 9.32421875 C-3.99984424 7.00712895 -3.67173402 5.20712606 -3 3 C-2.34 3 -1.68 3 -1 3 C-0.67 2.01 -0.34 1.02 0 0 Z " fill="#427AB9" transform="translate(35,40)"/>
<path d="M0 0 C0.33 1.32 0.66 2.64 1 4 C1.66 4 2.32 4 3 4 C3.33 4.66 3.66 5.32 4 6 C4.66 6.28875 5.32 6.5775 6 6.875 C8 8 8 8 8.75 10.125 C8.87375 11.053125 8.87375 11.053125 9 12 C6.15301606 11.91626518 4.448839 11.40889548 2.33203125 9.48046875 C-2 4.59278504 -2 4.59278504 -2 1 C-1.34 0.67 -0.68 0.34 0 0 Z " fill="#2E70B8" transform="translate(80,70)"/>
<path d="M0 0 C0.8353125 0.433125 0.8353125 0.433125 1.6875 0.875 C4.08494645 2.0413253 6.51596939 3.0339881 9 4 C8.01 4.33 7.02 4.66 6 5 C6 5.66 6 6.32 6 7 C8.97 7.495 8.97 7.495 12 8 C9.31485266 9.03274898 8.2078412 9.07566569 5.45703125 8.07421875 C4.58433594 7.61660156 3.71164063 7.15898438 2.8125 6.6875 C1.93207031 6.23761719 1.05164062 5.78773437 0.14453125 5.32421875 C-2 4 -2 4 -3 2 C-2.34 2 -1.68 2 -1 2 C-0.67 1.34 -0.34 0.68 0 0 Z " fill="#6B9BCF" transform="translate(45,70)"/>
<path d="M0 0 C4.95 0 9.9 0 15 0 C15.33 0.66 15.66 1.32 16 2 C15.34 2 14.68 2 14 2 C14 2.66 14 3.32 14 4 C10.0186217 5.3271261 6.14954773 5.06915913 2 5 C2 4.67 2 4.34 2 4 C3.98 3.67 5.96 3.34 8 3 C5.36 2.34 2.72 1.68 0 1 C0 0.67 0 0.34 0 0 Z " fill="#71A1D4" transform="translate(56,69)"/>
<path d="M0 0 C2 3 2 3 1.66015625 5.23046875 C1.44230469 6.14441406 1.22445312 7.05835938 1 8 C0.78301513 10.43505237 0.59709255 12.87301384 0.4375 15.3125 C0.35371094 16.56675781 0.26992187 17.82101563 0.18359375 19.11328125 C0.12300781 20.06589844 0.06242187 21.01851562 0 22 C-0.66 22 -1.32 22 -2 22 C-2.05401695 19.08308475 -2.09368066 16.16717276 -2.125 13.25 C-2.14175781 12.425 -2.15851563 11.6 -2.17578125 10.75 C-2.18222656 9.95078125 -2.18867187 9.1515625 -2.1953125 8.328125 C-2.20578613 7.5949707 -2.21625977 6.86181641 -2.22705078 6.10644531 C-1.96777544 3.70103924 -1.19225925 2.08748506 0 0 Z " fill="#74A4D8" transform="translate(89,36)"/>
<path d="M0 0 C4 1 4 1 6 4 C6 5.32 6 6.64 6 8 C4.68 8 3.36 8 2 8 C1.34 5.36 0.68 2.72 0 0 Z " fill="#5484C0" transform="translate(73,37)"/>
<path d="M0 0 C-0.33 0.66 -0.66 1.32 -1 2 C-2.19625 1.979375 -3.3925 1.95875 -4.625 1.9375 C-8.18004869 1.93117429 -11.50555624 2.30111125 -15 3 C-14.67 2.01 -14.34 1.02 -14 0 C-9.49048355 -1.09321611 -4.27999354 -2.13999677 0 0 Z " fill="#1C5FAA" transform="translate(67,27)"/>
<path d="M0 0 C1.98 0.66 3.96 1.32 6 2 C6 3.98 6 5.96 6 8 C5.01 8 4.02 8 3 8 C2.01 5.36 1.02 2.72 0 0 Z " fill="#3C76B6" transform="translate(102,84)"/>
<path d="M0 0 C0.33 0 0.66 0 1 0 C1.35789474 5.36842105 1.35789474 5.36842105 -0.0625 7.875 C-3.00227124 9.58196395 -5.67870803 9.18799766 -9 9 C-9 8.67 -9 8.34 -9 8 C-7.02 8 -5.04 8 -3 8 C-3 7.34 -3 6.68 -3 6 C-4.32 5.67 -5.64 5.34 -7 5 C-3.98968256 4.06576355 -3.13349732 3.95550089 0 5 C0 3.35 0 1.7 0 0 Z " fill="#7FACDA" transform="translate(108,87)"/>
<path d="M0 0 C-0.33 1.65 -0.66 3.3 -1 5 C-2.65 5 -4.3 5 -6 5 C-6.33 4.01 -6.66 3.02 -7 2 C-4.35261084 0.5393715 -3.10551666 0 0 0 Z " fill="#4D82BE" transform="translate(77,72)"/>
<path d="M0 0 C5.94 0.99 5.94 0.99 12 2 C8.91111478 4.05925681 8.29064073 4.2390374 4.8125 4.125 C2.9253125 4.063125 2.9253125 4.063125 1 4 C0.67 2.68 0.34 1.36 0 0 Z " fill="#2262AD" transform="translate(55,69)"/>
<path d="M0 0 C0.103125 0.639375 0.20625 1.27875 0.3125 1.9375 C0.539375 2.618125 0.76625 3.29875 1 4 C1.99 4.33 2.98 4.66 4 5 C4 5.99 4 6.98 4 8 C2.68 7.67 1.36 7.34 0 7 C0 6.34 0 5.68 0 5 C-0.99 5 -1.98 5 -3 5 C-2.67 4.01 -2.34 3.02 -2 2 C-1.34 2 -0.68 2 0 2 C0 1.34 0 0.68 0 0 Z " fill="#1F65B2" transform="translate(86,63)"/>
<path d="M0 0 C0.33 0.66 0.66 1.32 1 2 C1.99 2 2.98 2 4 2 C3.34 3.98 2.68 5.96 2 8 C1.34 7.34 0.68 6.68 0 6 C-0.99 6.33 -1.98 6.66 -3 7 C-1.125 2.25 -1.125 2.25 0 0 Z " fill="#76A6D5" transform="translate(86,59)"/>
<path d="M0 0 C0.99 0.33 1.98 0.66 3 1 C3.05399736 2.45792884 3.09279177 3.91642712 3.125 5.375 C3.14820312 6.18710937 3.17140625 6.99921875 3.1953125 7.8359375 C3 10 3 10 1 12 C0.67 8.04 0.34 4.08 0 0 Z " fill="#2163AA" transform="translate(82,41)"/>
<path d="M0 0 C0.66 0.33 1.32 0.66 2 1 C1.67 1.66 1.34 2.32 1 3 C1.99 3.33 2.98 3.66 4 4 C2.02 4.99 0.04 5.98 -2 7 C-2.66 5.68 -3.32 4.36 -4 3 C-2.68 2.01 -1.36 1.02 0 0 Z " fill="#6C9DD0" transform="translate(51,27)"/>
<path d="M0 0 C1.98 1.65 3.96 3.3 6 5 C5.01 6.32 4.02 7.64 3 9 C0.90250005 6.64031256 0.03094296 5.45383006 -0.1875 2.25 C-0.125625 1.5075 -0.06375 0.765 0 0 Z " fill="#6291C9" transform="translate(93,72)"/>
<path d="M0 0 C0.99 0 1.98 0 3 0 C2.6875 2.375 2.6875 2.375 2 5 C1.01 5.66 0.02 6.32 -1 7 C-2 4 -2 4 -1.0625 1.8125 C-0.5365625 0.9153125 -0.5365625 0.9153125 0 0 Z " fill="#447DBD" transform="translate(78,61)"/>
<path d="M0 0 C3 2 3 2 3.6875 4.625 C3.790625 5.40875 3.89375 6.1925 4 7 C3.01 6.67 2.02 6.34 1 6 C0.67 7.32 0.34 8.64 0 10 C-0.74926071 6.33694766 -1.2380014 3.57644848 0 0 Z " fill="#78A2D3" transform="translate(81,35)"/>
<path d="M0 0 C1.98 0.66 3.96 1.32 6 2 C5.67 3.32 5.34 4.64 5 6 C3.0625 5.25 3.0625 5.25 1 4 C0.25 1.875 0.25 1.875 0 0 Z " fill="#3E78BB" transform="translate(39,67)"/>
<path d="M0 0 C1.70884005 1.62339805 3.37446717 3.29319053 5 5 C5 5.66 5 6.32 5 7 C3.35 6.67 1.7 6.34 0 6 C-0.38218767 4.34385343 -0.71395102 2.67542976 -1 1 C-0.67 0.67 -0.34 0.34 0 0 Z " fill="#306EB0" transform="translate(43,60)"/>
<path d="M0 0 C1.32 0.33 2.64 0.66 4 1 C4.33 2.32 4.66 3.64 5 5 C3.35 4.67 1.7 4.34 0 4 C0 2.68 0 1.36 0 0 Z " fill="#2468B5" transform="translate(84,77)"/>
<path d="M0 0 C0.33 0.66 0.66 1.32 1 2 C1.99 2 2.98 2 4 2 C3.34 3.65 2.68 5.3 2 7 C1.67 6.01 1.34 5.02 1 4 C0.34 4 -0.32 4 -1 4 C-0.67 2.68 -0.34 1.36 0 0 Z " fill="#72A1D0" transform="translate(80,57)"/>
<path d="M0 0 C1.9375 0.8125 1.9375 0.8125 4 2 C4.33 2.99 4.66 3.98 5 5 C3.68 5 2.36 5 1 5 C0.67 3.35 0.34 1.7 0 0 Z " fill="#3171B4" transform="translate(77,33)"/>
<path d="M0 0 C1.32 1.32 2.64 2.64 4 4 C3.34 4 2.68 4 2 4 C1.34 4.66 0.68 5.32 0 6 C-0.99 4.68 -1.98 3.36 -3 2 C-2.01 2 -1.02 2 0 2 C0 1.34 0 0.68 0 0 Z " fill="#6D9ACF" transform="translate(81,26)"/>
<path d="M0 0 C0.99 0.99 1.98 1.98 3 3 C1.35 3.33 -0.3 3.66 -2 4 C-2 3.01 -2 2.02 -2 1 C-1.34 0.67 -0.68 0.34 0 0 Z " fill="#91AFCC" transform="translate(78,47)"/>
</svg>
