<?xml version="1.0" encoding="UTF-8"?>
<svg version="1.1" xmlns="http://www.w3.org/2000/svg" width="143" height="112">
<path d="M0 0 C0.9796875 -0.00257812 1.959375 -0.00515625 2.96875 -0.0078125 C5.5 0.125 5.5 0.125 7.5 1.125 C7.52312916 8.40921548 7.54091801 15.6934231 7.55181217 22.97766781 C7.55703975 26.35971813 7.56413511 29.7417434 7.57543945 33.1237793 C7.58834267 37.00829777 7.59322924 40.89280597 7.59765625 44.77734375 C7.60281754 45.99711411 7.60797882 47.21688446 7.61329651 48.47361755 C7.61337204 49.59470413 7.61344757 50.71579071 7.61352539 51.87084961 C7.615746 52.86346298 7.61796661 53.85607635 7.62025452 54.87876892 C7.5 57.125 7.5 57.125 6.5 58.125 C4.33519203 58.2239294 2.16706215 58.254711 0 58.25 C-1.1859375 58.25257812 -2.371875 58.25515625 -3.59375 58.2578125 C-6.5 58.125 -6.5 58.125 -7.5 57.125 C-7.59365006 55.3757128 -7.61744438 53.62263746 -7.61352539 51.87084961 C-7.61344986 50.74976303 -7.61337433 49.62867645 -7.61329651 48.47361755 C-7.60813522 47.2538472 -7.60297394 46.03407684 -7.59765625 44.77734375 C-7.5962413 43.53578018 -7.59482635 42.29421661 -7.59336853 41.01502991 C-7.58870591 37.70894509 -7.57971497 34.40292854 -7.56866455 31.09686279 C-7.55844827 27.7253885 -7.55387045 24.35390717 -7.54882812 20.98242188 C-7.53777395 14.36326225 -7.52101736 7.74413507 -7.5 1.125 C-4.89080172 -0.17959914 -2.91057385 -0.0076594 0 0 Z M-3.5 5.125 C-3.5 21.295 -3.5 37.465 -3.5 54.125 C-0.035 53.63 -0.035 53.63 3.5 53.125 C3.5 37.285 3.5 21.445 3.5 5.125 C1.19 5.125 -1.12 5.125 -3.5 5.125 Z " fill="#111F3B" transform="translate(111.5,41.875)"/>
<path d="M0 0 C1.27875 0.00257812 2.5575 0.00515625 3.875 0.0078125 C5.15375 0.00523438 6.4325 0.00265625 7.75 0 C10.875 0.1328125 10.875 0.1328125 11.875 1.1328125 C11.94825168 3.99548817 11.96738205 6.8335315 11.9375 9.6953125 C11.93298828 10.50162109 11.92847656 11.30792969 11.92382812 12.13867188 C11.91200518 14.13675006 11.89406914 16.13479033 11.875 18.1328125 C10.555 18.1328125 9.235 18.1328125 7.875 18.1328125 C6.90838637 15.01100849 6.88511091 12.61197455 7.3125 9.3828125 C7.46525391 8.18398438 7.46525391 8.18398438 7.62109375 6.9609375 C7.70488281 6.35765625 7.78867188 5.754375 7.875 5.1328125 C5.565 5.1328125 3.255 5.1328125 0.875 5.1328125 C1.205 18.0028125 1.535 30.8728125 1.875 44.1328125 C3.525 44.1328125 5.175 44.1328125 6.875 44.1328125 C7.205 38.5228125 7.535 32.9128125 7.875 27.1328125 C9.195 27.1328125 10.515 27.1328125 11.875 27.1328125 C11.875 34.0628125 11.875 40.9928125 11.875 48.1328125 C9.14957733 49.49552383 6.91412726 49.30204851 3.875 49.3203125 C2.8025 49.33449219 1.73 49.34867188 0.625 49.36328125 C-2.125 49.1328125 -2.125 49.1328125 -4.125 47.1328125 C-4.37223816 45.1526947 -4.37223816 45.1526947 -4.36791992 42.69897461 C-4.37099655 41.78139877 -4.37407318 40.86382294 -4.37724304 39.91844177 C-4.37005753 38.92570755 -4.36287201 37.93297333 -4.35546875 36.91015625 C-4.35501053 35.89433975 -4.35455231 34.87852325 -4.3540802 33.83192444 C-4.35105596 31.68245273 -4.34316456 29.53298325 -4.33081055 27.38354492 C-4.31255624 24.08048808 -4.3103008 20.77771138 -4.31054688 17.47460938 C-4.30563179 15.39062256 -4.29980351 13.30663765 -4.29296875 11.22265625 C-4.29129951 9.73051857 -4.29129951 9.73051857 -4.28959656 8.20823669 C-4.28321671 7.29381302 -4.27683685 6.37938934 -4.27026367 5.43725586 C-4.26645187 4.62832382 -4.26264008 3.81939178 -4.25871277 2.98594666 C-4.02644431 -0.23307741 -3.29449992 0.14001625 0 0 Z " fill="#091730" transform="translate(88.125,50.8671875)"/>
<path d="M0 0 C1.93166016 0.01740234 1.93166016 0.01740234 3.90234375 0.03515625 C5.19269531 0.04417969 6.48304687 0.05320312 7.8125 0.0625 C8.81152344 0.07410156 9.81054688 0.08570312 10.83984375 0.09765625 C10.86449565 4.92146427 10.88268068 9.74523592 10.89477539 14.5690918 C10.89981549 16.21135089 10.90664753 17.85360548 10.9152832 19.49584961 C10.92736301 21.85141104 10.93307514 24.20691334 10.9375 26.5625 C10.94266129 27.30104721 10.94782257 28.03959442 10.95314026 28.80052185 C10.95333625 30.56663713 10.90179094 32.33262771 10.83984375 34.09765625 C9.83984375 35.09765625 9.83984375 35.09765625 6.93359375 35.23046875 C5.74765625 35.22789063 4.56171875 35.2253125 3.33984375 35.22265625 C2.15390625 35.22523437 0.96796875 35.2278125 -0.25390625 35.23046875 C-3.16015625 35.09765625 -3.16015625 35.09765625 -4.16015625 34.09765625 C-4.26098389 31.66105179 -4.29988228 29.25340924 -4.29296875 26.81640625 C-4.29392548 26.08772339 -4.2948822 25.35904053 -4.29586792 24.60827637 C-4.2965496 23.06485915 -4.29469613 21.52143908 -4.29052734 19.97802734 C-4.28517887 17.60768225 -4.29047267 15.23752666 -4.296875 12.8671875 C-4.29621422 11.37109333 -4.29493305 9.87499928 -4.29296875 8.37890625 C-4.29499298 7.66536987 -4.29701721 6.9518335 -4.29910278 6.2166748 C-4.26992638 0.13195075 -4.26992638 0.13195075 0 0 Z M-0.16015625 4.09765625 C-0.16015625 13.00765625 -0.16015625 21.91765625 -0.16015625 31.09765625 C2.14984375 31.09765625 4.45984375 31.09765625 6.83984375 31.09765625 C6.83984375 22.18765625 6.83984375 13.27765625 6.83984375 4.09765625 C4.52984375 4.09765625 2.21984375 4.09765625 -0.16015625 4.09765625 Z " fill="#0D1C3B" transform="translate(69.16015625,64.90234375)"/>
<path d="M0 0 C3.625 -0.1875 3.625 -0.1875 7 0 C6.67 2.31 6.34 4.62 6 7 C4.68 7 3.36 7 2 7 C-0.68292036 8.14154495 -3.2665803 9.33342418 -5.875 10.625 C-7.41985227 11.36738689 -8.96543487 12.10825582 -10.51171875 12.84765625 C-11.27661621 13.2152002 -12.04151367 13.58274414 -12.82958984 13.96142578 C-21.90621556 18.30472902 -31.06810845 21.81813433 -40.625 24.9375 C-41.58623779 25.25662354 -42.54747559 25.57574707 -43.5378418 25.90454102 C-44.44574463 26.19256592 -45.35364746 26.48059082 -46.2890625 26.77734375 C-47.10068848 27.03765381 -47.91231445 27.29796387 -48.74853516 27.56616211 C-51.19708683 28.03797694 -52.65960767 27.79096283 -55 27 C-54.505 25.515 -54.505 25.515 -54 24 C-51.359375 22.89453125 -51.359375 22.89453125 -47.75 21.8125 C-46.3776722 21.38151407 -45.00664508 20.94637186 -43.63671875 20.5078125 C-42.89212402 20.2696582 -42.1475293 20.03150391 -41.38037109 19.78613281 C-30.26722543 16.11594522 -19.3093057 11.86998789 -8.8125 6.6875 C-8.14742432 6.36225342 -7.48234863 6.03700684 -6.79711914 5.7019043 C-3.58643519 4.06141818 -2.04291873 3.06437809 0 0 Z " fill="#101F3B" transform="translate(106,26)"/>
<path d="M0 0 C4.95 0 9.9 0 15 0 C15.0268245 4.14587582 15.04675315 8.29158038 15.0625 12.4375 C15.07087891 13.62150391 15.07925781 14.80550781 15.08789062 16.02539062 C15.09272461 17.71245117 15.09272461 17.71245117 15.09765625 19.43359375 C15.10551147 20.99678345 15.10551147 20.99678345 15.11352539 22.59155273 C15 25 15 25 14 26 C11.8579034 26.15154969 9.70976538 26.22177745 7.5625 26.25 C6.38816406 26.27578125 5.21382812 26.3015625 4.00390625 26.328125 C3.01261719 26.21984375 2.02132812 26.1115625 1 26 C-1.27492349 22.58761477 -1.19555565 21.63955735 -0.9765625 17.67578125 C-0.925 16.64775391 -0.8734375 15.61972656 -0.8203125 14.56054688 C-0.75585938 13.48869141 -0.69140625 12.41683594 -0.625 11.3125 C-0.53992187 9.68731445 -0.53992187 9.68731445 -0.453125 8.02929688 C-0.31161206 5.35234385 -0.15704237 2.6760869 0 0 Z M4 3 C4 9.27 4 15.54 4 22 C6.31 22 8.62 22 11 22 C11 15.73 11 9.46 11 3 C8.69 3 6.38 3 4 3 Z " fill="#0C1A34" transform="translate(46,74)"/>
<path d="M0 0 C0.33 0 0.66 0 1 0 C1.33 11.88 1.66 23.76 2 36 C3.65 36 5.3 36 7 36 C7.33 30.39 7.66 24.78 8 19 C9.32 19 10.64 19 12 19 C12 25.93 12 32.86 12 40 C9.23547967 41.38226016 6.9538637 41.09525387 3.875 41.0625 C2.77929688 41.05347656 1.68359375 41.04445312 0.5546875 41.03515625 C-0.28835937 41.02355469 -1.13140625 41.01195312 -2 41 C-3.14982602 36.90996141 -3.11094256 32.96822949 -3.0625 28.75 C-3.05798828 28.00492188 -3.05347656 27.25984375 -3.04882812 26.4921875 C-3.03709246 24.6614236 -3.0191585 22.83070127 -3 21 C-2.67 21 -2.34 21 -2 21 C-1.96241577 20.15236084 -1.96241577 20.15236084 -1.92407227 19.28759766 C-1.80820044 16.73316258 -1.68543463 14.1791045 -1.5625 11.625 C-1.52318359 10.73554687 -1.48386719 9.84609375 -1.44335938 8.9296875 C-1.40146484 8.07890625 -1.35957031 7.228125 -1.31640625 6.3515625 C-1.27974854 5.56604004 -1.24309082 4.78051758 -1.20532227 3.97119141 C-1 2 -1 2 0 0 Z " fill="#0B1838" transform="translate(88,59)"/>
<path d="M0 0 C0.33 0 0.66 0 1 0 C1 3.3 1 6.6 1 10 C1.66 10 2.32 10 3 10 C3 7.36 3 4.72 3 2 C3.33 2 3.66 2 4 2 C4 17.84 4 33.68 4 50 C7.465 49.505 7.465 49.505 11 49 C11.33 47.68 11.66 46.36 12 45 C12 46.98 12 48.96 12 51 C11.30132812 51.06058594 10.60265625 51.12117188 9.8828125 51.18359375 C8.97273438 51.26738281 8.06265625 51.35117188 7.125 51.4375 C6.22007813 51.51871094 5.31515625 51.59992188 4.3828125 51.68359375 C1.98889139 51.86989285 1.98889139 51.86989285 0 53 C0 35.51 0 18.02 0 0 Z " fill="#061536" transform="translate(104,46)"/>
<path d="M0 0 C0.33 0 0.66 0 1 0 C1 1.65 1 3.3 1 5 C1.66 4.01 2.32 3.02 3 2 C5.97 2 8.94 2 12 2 C12 11.57 12 21.14 12 31 C8.52676476 32.15774508 5.64187701 32 2 32 C1.01 32.495 1.01 32.495 0 33 C0 22.11 0 11.22 0 0 Z M4 3 C4 11.91 4 20.82 4 30 C6.31 30 8.62 30 11 30 C11 21.09 11 12.18 11 3 C8.69 3 6.38 3 4 3 Z " fill="#0B1634" transform="translate(65,66)"/>
<path d="M0 0 C0 8.25 0 16.5 0 25 C-4.29 25 -8.58 25 -13 25 C-14.07094763 20.7162095 -13.89567799 17.08514348 -13.5625 12.75 C-13.51029297 12.00492188 -13.45808594 11.25984375 -13.40429688 10.4921875 C-13.2751783 8.66105139 -13.13834886 6.83046187 -13 5 C-12.34 5 -11.68 5 -11 5 C-11 10.61 -11 16.22 -11 22 C-8.03 22 -5.06 22 -2 22 C-2.33 15.07 -2.66 8.14 -3 1 C-1 0 -1 0 0 0 Z " fill="#122144" transform="translate(60,75)"/>
<path d="M0 0 C2.05078125 0.03255208 4.1015625 0.06510417 6.15234375 0.09765625 C6.48234375 1.41765625 6.81234375 2.73765625 7.15234375 4.09765625 C5.17234375 4.09765625 3.19234375 4.09765625 1.15234375 4.09765625 C0.16381872 8.28041876 -0.04438909 12.29479111 -0.1640625 16.5859375 C-0.1848436 17.2891362 -0.20562469 17.9923349 -0.22703552 18.71684265 C-0.2920574 20.94785442 -0.35119401 23.17897694 -0.41015625 25.41015625 C-0.45338661 26.92904759 -0.4970023 28.44792802 -0.54101562 29.96679688 C-0.64768959 33.67696745 -0.74908846 37.38726046 -0.84765625 41.09765625 C-1.17765625 41.09765625 -1.50765625 41.09765625 -1.84765625 41.09765625 C-2.68028901 31.99749228 -3.00274223 22.98376626 -2.97265625 13.84765625 C-2.97652344 12.62691406 -2.98039062 11.40617187 -2.984375 10.1484375 C-2.98308594 8.99214844 -2.98179688 7.83585937 -2.98046875 6.64453125 C-2.97877686 5.07977051 -2.97877686 5.07977051 -2.97705078 3.48339844 C-2.7961386 0.14778745 -2.7961386 0.14778745 0 0 Z " fill="#112348" transform="translate(87.84765625,51.90234375)"/>
<path d="M0 0 C4.29 0 8.58 0 13 0 C13.05382106 2.62527189 13.09358313 5.24944713 13.125 7.875 C13.14175781 8.62136719 13.15851563 9.36773437 13.17578125 10.13671875 C13.1933959 12.09194461 13.10320189 14.04742021 13 16 C12.34 16.66 11.68 17.32 11 18 C11 12.72 11 7.44 11 2 C6.545 2.495 6.545 2.495 2 3 C2 3.66 2 4.32 2 5 C1.34 5 0.68 5 0 5 C0 3.35 0 1.7 0 0 Z " fill="#132146" transform="translate(66,66)"/>
<path d="M0 0 C0.33 0 0.66 0 1 0 C1.19645093 3.12450532 1.38063489 6.24961445 1.5625 9.375 C1.61857422 10.26445313 1.67464844 11.15390625 1.73242188 12.0703125 C1.78076172 12.92109375 1.82910156 13.771875 1.87890625 14.6484375 C1.9260376 15.43395996 1.97316895 16.21948242 2.02172852 17.02880859 C2 19 2 19 1 21 C-2.96 21 -6.92 21 -11 21 C-11 20.34 -11 19.68 -11 19 C-7.7 18.34 -4.4 17.68 -1 17 C-0.67 11.39 -0.34 5.78 0 0 Z " fill="#0F1F42" transform="translate(97,79)"/>
<path d="M0 0 C0.99 0 1.98 0 3 0 C3 5.61 3 11.22 3 17 C1.68 17 0.36 17 -1 17 C-1.02691685 14.54159395 -1.04679802 12.08348118 -1.0625 9.625 C-1.07087891 8.92632812 -1.07925781 8.22765625 -1.08789062 7.5078125 C-1.11328125 2.2265625 -1.11328125 2.2265625 0 0 Z " fill="#162444" transform="translate(97,52)"/>
<path d="M0 0 C1.65748941 3.31497881 0.86103422 6.94822604 0.625 10.5625 C0.58117187 11.35591797 0.53734375 12.14933594 0.4921875 12.96679688 C0.12917283 18.87082717 0.12917283 18.87082717 -1 20 C-3.67058851 20.14115161 -6.32432238 20.04247107 -9 20 C-8.67 19.34 -8.34 18.68 -8 18 C-6.02 18 -4.04 18 -2 18 C-1.93941406 16.78441406 -1.87882812 15.56882812 -1.81640625 14.31640625 C-1.73201668 12.73175772 -1.6473679 11.14712298 -1.5625 9.5625 C-1.52318359 8.76005859 -1.48386719 7.95761719 -1.44335938 7.13085938 C-1.11328125 1.11328125 -1.11328125 1.11328125 0 0 Z " fill="#03102E" transform="translate(97,77)"/>
<path d="M0 0 C1.65 0.33 3.3 0.66 5 1 C5 1.99 5 2.98 5 4 C4.01 4 3.02 4 2 4 C2 4.66 2 5.32 2 6 C0.35 6.33 -1.3 6.66 -3 7 C-1.125 2.25 -1.125 2.25 0 0 Z " fill="#142342" transform="translate(105,27)"/>
<path d="M0 0 C1.32 0 2.64 0 4 0 C4 0.66 4 1.32 4 2 C3.01 2.495 3.01 2.495 2 3 C1.53476937 4.89533342 1.53476937 4.89533342 1.375 7.0625 C1.25125 8.361875 1.1275 9.66125 1 11 C0.34 11 -0.32 11 -1 11 C-1.02688151 9.35425434 -1.04634123 7.70838587 -1.0625 6.0625 C-1.07410156 5.14597656 -1.08570312 4.22945312 -1.09765625 3.28515625 C-1 1 -1 1 0 0 Z " fill="#132449" transform="translate(106,45)"/>
<path d="M0 0 C0.99 0 1.98 0 3 0 C3 0.66 3 1.32 3 2 C4.32 2.33 5.64 2.66 7 3 C4.69 3.33 2.38 3.66 0 4 C0 2.68 0 1.36 0 0 Z " fill="#151935" transform="translate(52,50)"/>
<path d="M0 0 C1.32 0 2.64 0 4 0 C3.67 1.32 3.34 2.64 3 4 C2.01 4 1.02 4 0 4 C0 2.68 0 1.36 0 0 Z " fill="#131B3D" transform="translate(96,72)"/>
</svg>
