<?xml version="1.0" encoding="UTF-8"?>
<svg version="1.1" xmlns="http://www.w3.org/2000/svg" width="143" height="119">
<path d="M0 0 C2.64 0 5.28 0 8 0 C8.33 1.65 8.66 3.3 9 5 C10.98 4.34 12.96 3.68 15 3 C17.475 5.97 17.475 5.97 20 9 C19.34 10.32 18.68 11.64 18 13 C20.475 13.99 20.475 13.99 23 15 C23 17.31 23 19.62 23 22 C21.35 22.66 19.7 23.32 18 24 C18.66 25.98 19.32 27.96 20 30 C18.02 31.65 16.04 33.3 14 35 C12.68 34.34 11.36 33.68 10 33 C9.649375 33.825 9.29875 34.65 8.9375 35.5 C8.298125 36.325 7.65875 37.15 7 38 C3.3125 38.3125 3.3125 38.3125 0 38 C-0.66 36.35 -1.32 34.7 -2 33 C-3.65 33.66 -5.3 34.32 -7 35 C-8.65 33.35 -10.3 31.7 -12 30 C-11.34 28.02 -10.68 26.04 -10 24 C-11.65 23.67 -13.3 23.34 -15 23 C-15 20.36 -15 17.72 -15 15 C-13.35 14.67 -11.7 14.34 -10 14 C-10.350625 13.4225 -10.70125 12.845 -11.0625 12.25 C-12 10 -12 10 -11.8125 7.9375 C-10.850517 5.64354053 -10.04136796 4.43651819 -8 3 C-6 3.25 -6 3.25 -4 4 C-3.01 4.33 -2.02 4.66 -1 5 C-0.67 3.35 -0.34 1.7 0 0 Z M3 3 C2.67 4.65 2.34 6.3 2 8 C-0.97 8 -3.94 8 -7 8 C-7 10.97 -7 13.94 -7 17 C-8.32 17.33 -9.64 17.66 -11 18 C-11 18.66 -11 19.32 -11 20 C-10.01 20.33 -9.02 20.66 -8 21 C-6.54992063 23.68264684 -5.88215945 25.27331661 -6.375 28.3125 C-6.58125 28.869375 -6.7875 29.42625 -7 30 C-6.236875 29.814375 -5.47375 29.62875 -4.6875 29.4375 C-2 29 -2 29 1 30 C2.1875 32.0625 2.1875 32.0625 3 34 C3.66 34 4.32 34 5 34 C5.226875 33.360625 5.45375 32.72125 5.6875 32.0625 C7 30 7 30 9.4375 29.1875 C12 29 12 29 15 30 C14.814375 29.278125 14.62875 28.55625 14.4375 27.8125 C13.98004693 24.87173027 14.26483643 22.85896942 15 20 C16.32 20 17.64 20 19 20 C19 19.34 19 18.68 19 18 C18.01 17.67 17.02 17.34 16 17 C13.73584906 11.79245283 13.73584906 11.79245283 15 8 C13.88625 8.020625 12.7725 8.04125 11.625 8.0625 C8 8 8 8 6 7 C5.375 4.9375 5.375 4.9375 5 3 C4.34 3 3.68 3 3 3 Z " fill="#14539C" transform="translate(68,42)"/>
<path d="M0 0 C3.99415824 1.36942568 6.88332834 3.14305098 10 6 C10.495 7.485 10.495 7.485 11 9 C8.03 11.64 5.06 14.28 2 17 C1.01 16.67 0.02 16.34 -1 16 C-1 15.01 -1 14.02 -1 13 C-11.64934433 15.97272338 -18.30288181 19.42884144 -24 29 C-24.99 28.67 -25.98 28.34 -27 28 C-26.41463247 24.33939179 -24.916761 22.45464836 -22.4375 19.75 C-21.47650391 18.69039062 -21.47650391 18.69039062 -20.49609375 17.609375 C-20.00238281 17.07828125 -19.50867187 16.5471875 -19 16 C-24.16498344 19.58679405 -26.23668568 23.47337136 -29 29 C-30.32 28.67 -31.64 28.34 -33 28 C-31.20661892 20.22868197 -26.04571123 14.14536062 -19.625 9.625 C-13.98193211 6.15826887 -7.75551384 3.3462406 -1 4 C-0.67 2.68 -0.34 1.36 0 0 Z M2 6 C1.67 6.33 1.34 6.66 1 7 C-0.7038513 7.2977318 -2.413422 7.56299204 -4.125 7.8125 C-9.24150692 8.68637537 -12.70276019 10.13517346 -17 13 C-16.01 13.495 -16.01 13.495 -15 14 C-12.83789646 13.21622336 -12.83789646 13.21622336 -10.4375 12.0625 C-5.32865089 9.89848968 -1.50397009 9.64490516 4 10 C4 8.68 4 7.36 4 6 C3.34 6 2.68 6 2 6 Z " fill="#185BA6" transform="translate(71,21)"/>
<path d="M0 0 C1.32 0.33 2.64 0.66 4 1 C0.0914522 9.40337778 -4.52617853 14.18389809 -13 18 C-17.96773617 19.27362373 -22.87086735 20 -28 20 C-21.88930418 22.03689861 -14.58482198 19.24761626 -8.95703125 16.53125 C-4.23851115 14.00764552 -4.23851115 14.00764552 -1 10 C-0.34 10 0.32 10 1 10 C1.268125 9.278125 1.53625 8.55625 1.8125 7.8125 C3.00626144 4.98517028 4.21484551 2.49921628 6 0 C6.99 0 7.98 0 9 0 C8.83455682 6.45228421 5.21183667 10.47166693 1 15 C-4.49615213 19.96912385 -10.32714794 23.57852517 -17.8125 24.4375 C-18.864375 24.623125 -19.91625 24.80875 -21 25 C-22.51294288 26.93597032 -22.51294288 26.93597032 -23 29 C-28.00918744 27.52670958 -30.51807722 24.72484762 -34 21 C-32.40279281 16.6875406 -29.68366181 14.57856327 -26 12 C-23.625 12.1875 -23.625 12.1875 -22 13 C-22 13.99 -22 14.98 -22 16 C-12.70181908 12.54944354 -4.62983927 9.25967854 0 0 Z " fill="#19569F" transform="translate(96,72)"/>
<path d="M0 0 C9.36758559 3.30620668 16.58780143 9.51716177 20.875 18.4375 C22.80597158 23.02118335 23.71968866 27.04783305 24 32 C25.32 32.33 26.64 32.66 28 33 C26.63629701 35.99220268 25.05091917 38.29026529 22.875 40.75 C22.33617188 41.36359375 21.79734375 41.9771875 21.2421875 42.609375 C20.83226563 43.06828125 20.42234375 43.5271875 20 44 C18.87105124 43.06725891 17.74699124 42.12859878 16.625 41.1875 C15.99851562 40.66542969 15.37203125 40.14335938 14.7265625 39.60546875 C13 38 13 38 11 35 C11 34.01 11 33.02 11 32 C12.32 32 13.64 32 15 32 C11.70364911 21.89614214 11.70364911 21.89614214 5 14 C5 13.34 5 12.68 5 12 C4.195625 11.7525 3.39125 11.505 2.5625 11.25 C0 10 0 10 -0.8125 7.875 C-0.874375 7.25625 -0.93625 6.6375 -1 6 C5.27753203 6.78607544 8.82123536 10.49256847 13 15 C14.73573586 17.55996798 15.93484341 20.10300819 17 23 C17.6496875 24.7325 17.6496875 24.7325 18.3125 26.5 C19.14462562 30.73627589 18.74271358 33.76653257 18 38 C18.99 37.505 18.99 37.505 20 37 C18.36416633 25.30522422 16.66330462 16.19992949 6.875 8.5625 C4.34879397 6.78198129 1.78796316 5.33202684 -1 4 C-0.67 2.68 -0.34 1.36 0 0 Z " fill="#15539C" transform="translate(84,27)"/>
<path d="M0 0 C2.65276917 0.38144393 3.81830943 0.81790113 5.73828125 2.7421875 C6.25777344 3.44601563 6.77726562 4.14984375 7.3125 4.875 C8.11107422 5.92300781 8.11107422 5.92300781 8.92578125 6.9921875 C9.28027344 7.65476562 9.63476562 8.31734375 10 9 C9.67 9.99 9.34 10.98 9 12 C8.01 12 7.02 12 6 12 C8.31804769 19.83240957 11.18187955 25.26287426 17 31 C17.804375 31.825 18.60875 32.65 19.4375 33.5 C19.953125 33.995 20.46875 34.49 21 35 C20.67 35.66 20.34 36.32 20 37 C13.8736447 35.1435287 8.97884462 31.01532468 5.6875 25.5625 C3.03657905 19.96611133 1.71824912 15.19851938 2 9 C2 8.01 2 7.02 2 6 C1.34 6.66 0.68 7.32 0 8 C0.33 8.33 0.66 8.66 1 9 C1.27416026 10.64198158 1.51878303 12.28892302 1.75 13.9375 C3.43985491 23.43522468 7.0577738 30.42650793 15 36 C15.5878125 36.4125 16.175625 36.825 16.78125 37.25 C18.16984523 38.19319676 19.582378 39.10102019 21 40 C20.67 40.99 20.34 41.98 20 43 C12.15746893 40.83930266 5.57512949 35.26535649 1.5 28.1875 C1.005 27.135625 0.51 26.08375 0 25 C-0.34804688 24.37222656 -0.69609375 23.74445313 -1.0546875 23.09765625 C-2.11314843 20.74892271 -2.39920523 18.80900736 -2.625 16.25 C-2.69976562 15.45078125 -2.77453125 14.6515625 -2.8515625 13.828125 C-2.90054688 13.22484375 -2.94953125 12.6215625 -3 12 C-4.32 11.67 -5.64 11.34 -7 11 C-6.40716379 7.60807637 -5.23256811 5.7892243 -2.9375 3.25 C-2.38964844 2.63640625 -1.84179688 2.0228125 -1.27734375 1.390625 C-0.85582031 0.93171875 -0.43429688 0.4728125 0 0 Z " fill="#1857A0" transform="translate(39,51)"/>
<path d="M0 0 C2.81831785 2.59581908 3.85564038 4.23008205 4.5625 8 C3.78698584 12.13607554 2.38677089 13.54999553 -1 16 C-4.95779649 16.62491523 -7.00863886 16.61006839 -10.4375 14.5 C-12.6242481 11.00120304 -12.84266352 8.02330524 -12 4 C-8.37839226 -0.70809006 -5.70410169 -1.59714847 0 0 Z M-7.8125 4.1875 C-9.27508617 6.00808993 -9.27508617 6.00808993 -8.75 8.625 C-8.22254355 10.9312407 -8.22254355 10.9312407 -7 12 C-4.66055264 11.71269945 -2.3260857 11.38063221 0 11 C0.16681109 8.08347826 0.16681109 8.08347826 0 5 C-0.66 4.34 -1.32 3.68 -2 3 C-5.80350374 2.63464916 -5.80350374 2.63464916 -7.8125 4.1875 Z " fill="#11529B" transform="translate(76,53)"/>
<path d="M0 0 C-0.33 0.66 -0.66 1.32 -1 2 C-3.31 2 -5.62 2 -8 2 C-8 2.66 -8 3.32 -8 4 C-7.34 4.33 -6.68 4.66 -6 5 C-7.19625 5.515625 -8.3925 6.03125 -9.625 6.5625 C-15.34464906 9.40204209 -18.52366241 13.78549361 -22 19 C-22.99 18.67 -23.98 18.34 -25 18 C-23.96930321 12.14198913 -19.55821278 7.96293635 -14.96875 4.44140625 C-5.35911986 -1.78637329 -5.35911986 -1.78637329 0 0 Z " fill="#1F5CA5" transform="translate(69,31)"/>
<path d="M0 0 C0.53625 0.680625 1.0725 1.36125 1.625 2.0625 C2.40875 3.031875 3.1925 4.00125 4 5 C4.43570313 5.56589844 4.87140625 6.13179688 5.3203125 6.71484375 C8.9764833 11.28006248 12.88905572 14.18508907 18 17 C17.67 17.99 17.34 18.98 17 20 C12.2566315 18.71201965 9.39528108 16.96892901 5.8125 13.625 C4.97332031 12.85414062 4.13414063 12.08328125 3.26953125 11.2890625 C1.27237036 9.27471434 -0.47111384 7.38667707 -2 5 C-1.75203633 2.83031791 -1.55766393 1.55766393 0 0 Z " fill="#0E4E9C" transform="translate(42,74)"/>
<path d="M0 0 C1.98 0.66 3.96 1.32 6 2 C4.63629701 4.99220268 3.05091917 7.29026529 0.875 9.75 C0.06675781 10.67039062 0.06675781 10.67039062 -0.7578125 11.609375 C-1.37269531 12.29773438 -1.37269531 12.29773438 -2 13 C-4.5 11.3125 -4.5 11.3125 -7 9 C-7.3125 6.25 -7.3125 6.25 -7 4 C-7.66 4 -8.32 4 -9 4 C-9 3.34 -9 2.68 -9 2 C-7.68 1.67 -6.36 1.34 -5 1 C-4.67 2.98 -4.34 4.96 -4 7 C-1.64214682 6.10664203 -1.64214682 6.10664203 -0.875 2.9375 C-0.58625 1.968125 -0.2975 0.99875 0 0 Z " fill="#1C5CA7" transform="translate(106,58)"/>
<path d="M0 0 C0.99 0 1.98 0 3 0 C2.83452729 6.4534356 -0.88236766 10.40255881 -5 15 C-9.29268293 19 -9.29268293 19 -13 19 C-11.69386058 15.08158173 -10.16870152 12.67359191 -7 10 C-6.34 10 -5.68 10 -5 10 C-4.731875 9.278125 -4.46375 8.55625 -4.1875 7.8125 C-2.99373856 4.98517028 -1.78515449 2.49921628 0 0 Z " fill="#1E5DA6" transform="translate(102,72)"/>
<path d="M0 0 C0.33 2.64 0.66 5.28 1 8 C-0.65 7.67 -2.3 7.34 -4 7 C-4.33 8.32 -4.66 9.64 -5 11 C-3.35 11 -1.7 11 0 11 C0 11.99 0 12.98 0 14 C-3.93370357 13.43804235 -6.83175607 12.44407389 -10 10 C-10 6 -10 6 -8.57421875 4.296875 C-7.95160156 3.78640625 -7.32898438 3.2759375 -6.6875 2.75 C-6.07261719 2.22921875 -5.45773438 1.7084375 -4.82421875 1.171875 C-3 0 -3 0 0 0 Z " fill="#1055A7" transform="translate(73,84)"/>
<path d="M0 0 C0 0.66 0 1.32 0 2 C1.98 2 3.96 2 6 2 C6 2.33 6 2.66 6 3 C4.329375 3.12375 4.329375 3.12375 2.625 3.25 C-1.05753944 3.57873787 -1.05753944 3.57873787 -2.4375 6.0625 C-2.623125 6.701875 -2.80875 7.34125 -3 8 C-6.65316671 6.75023244 -7.78065836 6.32901247 -10 3 C-7.69 3.66 -5.38 4.32 -3 5 C-3 4.01 -3 3.02 -3 2 C-4.65 2 -6.3 2 -8 2 C-4.77208445 -0.1519437 -3.71599191 -0.20086443 0 0 Z " fill="#124D8F" transform="translate(76,93)"/>
<path d="M0 0 C0.33 0.66 0.66 1.32 1 2 C0.67 2.99 0.34 3.98 0 5 C0.66 5 1.32 5 2 5 C1.8125 7.375 1.8125 7.375 1 10 C-0.65204456 10.70211894 -2.31923769 11.36971413 -4 12 C-4.88693303 14.04105639 -4.88693303 14.04105639 -5 16 C-5 14.02 -5 12.04 -5 10 C-4.01 10 -3.02 10 -2 10 C-2.061875 8.081875 -2.061875 8.081875 -2.125 6.125 C-2.1953125 3.9453125 -2.1953125 3.9453125 -2 2 C-1.34 1.34 -0.68 0.68 0 0 Z " fill="#155EB5" transform="translate(60,47)"/>
<path d="M0 0 C5.69891008 3.27384196 5.69891008 3.27384196 7.0625 6.5625 C7 9 7 9 5.49609375 10.65234375 C5.00238281 11.09707031 4.50867188 11.54179688 4 12 C3.3291288 10.3767313 2.66342971 8.75132422 2 7.125 C1.62875 6.22007813 1.2575 5.31515625 0.875 4.3828125 C0 2 0 2 0 0 Z " fill="#1155A1" transform="translate(93,41)"/>
<path d="M0 0 C0.99 0 1.98 0 3 0 C2.125 4.875 2.125 4.875 1 6 C-1.67058851 6.14115161 -4.32432238 6.04247107 -7 6 C-7.33 5.34 -7.66 4.68 -8 4 C-6.02 4 -4.04 4 -2 4 C-2 3.34 -2 2.68 -2 2 C-1.34 2 -0.68 2 0 2 C0 1.34 0 0.68 0 0 Z " fill="#0F52AC" transform="translate(76,62)"/>
<path d="M0 0 C0.33 0 0.66 0 1 0 C1 2.31 1 4.62 1 7 C-0.32 7.33 -1.64 7.66 -3 8 C-3 7.34 -3 6.68 -3 6 C-3.99 6 -4.98 6 -6 6 C-6.33 8.31 -6.66 10.62 -7 13 C-7.66 12.01 -8.32 11.02 -9 10 C-8.125 7.3125 -8.125 7.3125 -7 5 C-5.35 5 -3.7 5 -2 5 C-2 4.34 -2 3.68 -2 3 C-1.34 3 -0.68 3 0 3 C0 2.01 0 1.02 0 0 Z " fill="#1B5499" transform="translate(90,57)"/>
<path d="M0 0 C0.66 0 1.32 0 2 0 C2 0.66 2 1.32 2 2 C2.66 2 3.32 2 4 2 C4 3.98 4 5.96 4 8 C3.01 8 2.02 8 1 8 C1 7.01 1 6.02 1 5 C0.01 5 -0.98 5 -2 5 C-1.125 1.125 -1.125 1.125 0 0 Z " fill="#135CAE" transform="translate(35,58)"/>
<path d="M0 0 C4.875 1.75 4.875 1.75 6 4 C5.360625 4.103125 4.72125 4.20625 4.0625 4.3125 C3.381875 4.539375 2.70125 4.76625 2 5 C1.67 5.99 1.34 6.98 1 8 C-1.64 8 -4.28 8 -7 8 C-7 7.67 -7 7.34 -7 7 C-5.02 7 -3.04 7 -1 7 C-1 6.34 -1 5.68 -1 5 C-0.01 4.34 0.98 3.68 2 3 C1.01 3 0.02 3 -1 3 C-0.67 2.01 -0.34 1.02 0 0 Z " fill="#145097" transform="translate(71,21)"/>
<path d="M0 0 C2 3.75 2 3.75 2 6 C2.66 6 3.32 6 4 6 C3.67 6.99 3.34 7.98 3 9 C1.68 8.67 0.36 8.34 -1 8 C-1 6.35 -1 4.7 -1 3 C-1.66 3 -2.32 3 -3 3 C-3 2.34 -3 1.68 -3 1 C-2.01 0.67 -1.02 0.34 0 0 Z " fill="#125AB3" transform="translate(100,59)"/>
<path d="M0 0 C0.33 0.99 0.66 1.98 1 3 C2.65 2.67 4.3 2.34 6 2 C6 2.66 6 3.32 6 4 C7.98 3.67 9.96 3.34 12 3 C9.60236815 5.39763185 8.66726502 5.34280586 5.375 5.625 C4.55773437 5.69976562 3.74046875 5.77453125 2.8984375 5.8515625 C2.27195312 5.90054688 1.64546875 5.94953125 1 6 C0.67 4.02 0.34 2.04 0 0 Z " fill="#165195" transform="translate(73,85)"/>
<path d="M0 0 C-2.85306797 2.32472205 -5.54074837 3.7508258 -9 5 C-9.33 3.68 -9.66 2.36 -10 1 C-6.1496895 -1.56687367 -4.41430237 -0.83288724 0 0 Z " fill="#19589C" transform="translate(61,30)"/>
<path d="M0 0 C1.65 0 3.3 0 5 0 C4.01 0.495 4.01 0.495 3 1 C3 2.98 3 4.96 3 7 C2.67 6.01 2.34 5.02 2 4 C-2.455 4.495 -2.455 4.495 -7 5 C-7 4.34 -7 3.68 -7 3 C-3.535 2.505 -3.535 2.505 0 2 C0 1.34 0 0.68 0 0 Z " fill="#10539F" transform="translate(68,30)"/>
<path d="M0 0 C0.99 0 1.98 0 3 0 C3.33 0.99 3.66 1.98 4 3 C3.34 3 2.68 3 2 3 C2 4.65 2 6.3 2 8 C1.01 7.67 0.02 7.34 -1 7 C-0.67 4.69 -0.34 2.38 0 0 Z " fill="#0B55AE" transform="translate(84,63)"/>
<path d="M0 0 C0.66 0.33 1.32 0.66 2 1 C0.60667426 4.36720387 -0.9789286 5.9859524 -4 8 C-4.99 7.01 -5.98 6.02 -7 5 C-5.35 5 -3.7 5 -2 5 C-2.33 3.68 -2.66 2.36 -3 1 C-2.01 1.33 -1.02 1.66 0 2 C0 1.34 0 0.68 0 0 Z " fill="#114791" transform="translate(86,69)"/>
<path d="M0 0 C0.66 0 1.32 0 2 0 C2.66 1.65 3.32 3.3 4 5 C3.01 5.33 2.02 5.66 1 6 C0.67 6.99 0.34 7.98 0 9 C-1.10844919 5.67465243 -0.84454356 3.37817425 0 0 Z " fill="#1658AC" transform="translate(59,63)"/>
<path d="M0 0 C0.33 0.66 0.66 1.32 1 2 C0.67 2.66 0.34 3.32 0 4 C-2.64860427 4.59355614 -5.29197322 4.74209269 -8 5 C-7.67 4.01 -7.34 3.02 -7 2 C-3.4375 0.8125 -3.4375 0.8125 0 0 Z " fill="#1257AB" transform="translate(87,84)"/>
<path d="M0 0 C1.875 0.25 1.875 0.25 4 1 C5.25 3.0625 5.25 3.0625 6 5 C5.01 5.66 4.02 6.32 3 7 C2.67 6.34 2.34 5.68 2 5 C2.33 4.01 2.66 3.02 3 2 C1.35 2.66 -0.3 3.32 -2 4 C-1.34 2.68 -0.68 1.36 0 0 Z " fill="#1F5999" transform="translate(39,51)"/>
<path d="M0 0 C0.33 0.66 0.66 1.32 1 2 C1.66 2 2.32 2 3 2 C2.67 3.65 2.34 5.3 2 7 C1.34 7 0.68 7 0 7 C-0.38133299 5.0085944 -0.71325582 3.00720923 -1 1 C-0.67 0.67 -0.34 0.34 0 0 Z " fill="#1558A6" transform="translate(39,69)"/>
<path d="M0 0 C1.65 1.65 3.3 3.3 5 5 C4.01 5.495 4.01 5.495 3 6 C2.67 6.66 2.34 7.32 2 8 C1.01 6.68 0.02 5.36 -1 4 C-0.34 4 0.32 4 1 4 C0.67 2.68 0.34 1.36 0 0 Z " fill="#134D95" transform="translate(44,78)"/>
<path d="M0 0 C0.66 0 1.32 0 2 0 C2.33 1.32 2.66 2.64 3 4 C3.99 4 4.98 4 6 4 C6 4.66 6 5.32 6 6 C4.35 6 2.7 6 1 6 C0.67 4.02 0.34 2.04 0 0 Z " fill="#0E5BB5" transform="translate(67,73)"/>
<path d="M0 0 C0.66 0 1.32 0 2 0 C1.67 1.65 1.34 3.3 1 5 C-0.32 5 -1.64 5 -3 5 C-3 4.34 -3 3.68 -3 3 C-2.34 3 -1.68 3 -1 3 C-0.67 2.01 -0.34 1.02 0 0 Z " fill="#1054A3" transform="translate(64,70)"/>
<path d="M0 0 C0.66 0 1.32 0 2 0 C2.33 2.31 2.66 4.62 3 7 C2.01 6.67 1.02 6.34 0 6 C0 4.02 0 2.04 0 0 Z " fill="#185BA7" transform="translate(64,59)"/>
<path d="M0 0 C0.99 0.33 1.98 0.66 3 1 C2.6875 2.875 2.6875 2.875 2 5 C1.01 5.66 0.02 6.32 -1 7 C-0.67 4.69 -0.34 2.38 0 0 Z " fill="#0A5DB3" transform="translate(44,58)"/>
<path d="M0 0 C2.475 0.99 2.475 0.99 5 2 C4.34 2.66 3.68 3.32 3 4 C1.68 4 0.36 4 -1 4 C-0.67 2.68 -0.34 1.36 0 0 Z " fill="#1D5297" transform="translate(84,27)"/>
</svg>
