<?xml version="1.0" encoding="UTF-8" standalone="no"?>
<svg
   version="1.1"
   id="Layer_1"
   x="0px"
   y="0px"
   width="100%"
   viewBox="0 0 1024 1024"
   enable-background="new 0 0 1024 1024"
   xml:space="preserve"
   sodipodi:docname="vegah.svg"
   inkscape:version="1.4 (86a8ad7, 2024-10-11)"
   xmlns:inkscape="http://www.inkscape.org/namespaces/inkscape"
   xmlns:sodipodi="http://sodipodi.sourceforge.net/DTD/sodipodi-0.dtd"
   xmlns="http://www.w3.org/2000/svg"
   xmlns:svg="http://www.w3.org/2000/svg"><defs
   id="defs29" /><sodipodi:namedview
   id="namedview29"
   pagecolor="#ffffff"
   bordercolor="#000000"
   borderopacity="0.25"
   inkscape:showpageshadow="2"
   inkscape:pageopacity="0.0"
   inkscape:pagecheckerboard="0"
   inkscape:deskcolor="#d1d1d1"
   showgrid="false"
   inkscape:zoom="0.8376177"
   inkscape:cx="569.47221"
   inkscape:cy="395.76528"
   inkscape:window-width="2560"
   inkscape:window-height="1494"
   inkscape:window-x="-11"
   inkscape:window-y="-11"
   inkscape:window-maximized="1"
   inkscape:current-layer="Layer_1" />
<path
   fill="#000000"
   opacity="1"
   stroke="none"
   d="m 750.8075,542.992 c 10e-4,-36.66037 0.007,-72.82223 -0.005,-108.98413 -10e-4,-3.32272 0.17834,-6.664 -1.09369,-9.8674 -1.72644,-4.34799 -4.12085,-7.60937 -9.539,-6.94339 -4.83063,0.59384 -5.35101,-2.4671 -5.32007,-6.26645 0.0309,-3.78439 0.0364,-6.99481 5.3028,-6.90118 10.49524,0.18661 20.99707,0.13919 31.49414,0.0153 4.05218,-0.0478 5.52337,1.50485 5.49072,5.64191 -0.15893,20.16268 -0.0777,40.32739 -0.0595,60.49136 0.006,6.565 0.0364,6.58154 6.70593,6.58463 21.66382,0.01 43.32862,-0.10282 64.99054,0.0975 4.51496,0.0417 6.06159,-1.18192 6.00617,-5.88764 -0.23743,-20.16116 0.072,-40.32916 -0.21064,-60.48916 -0.0729,-5.19547 1.76484,-6.65042 6.61701,-6.52307 9.65875,0.25348 19.33228,0.24575 28.99231,0.0257 4.85461,-0.11062 6.33606,1.85053 6.19446,6.53653 -0.12738,4.21506 -0.43958,7.39716 -5.85175,6.67404 -4.18451,-0.55908 -6.53192,1.91559 -8.06891,5.34143 -1.59118,3.54666 -2.06738,7.336 -2.06634,11.20993 0.0106,39.32813 -0.005,78.65625 0.008,117.98438 0.003,7.51178 0.20703,7.73895 7.87219,7.93432 2.78907,0.0711 4.89801,0.3877 4.93964,3.96662 0.0432,3.71649 -2.04144,4.48273 -5.10809,4.44684 -3.9989,-0.0469 -7.99982,-0.0608 -11.99793,0.0129 -2.72711,0.0503 -5.77832,-0.76386 -7.47638,2.55212 -0.21026,0.41052 -1.19537,0.58203 -1.82715,0.59527 -10.64288,0.22309 -21.30877,0.62281 -31.85626,-1.20227 -3.38507,-0.58575 -2.05316,-3.69165 -2.19989,-5.80273 -0.13501,-1.94263 -0.25958,-3.91492 2.61359,-4.5235 9.47357,-2.00677 16.0896,-9.53857 16.237,-18.90069 0.22033,-13.99476 0.0126,-27.99573 0.11212,-41.99323 0.0227,-3.19369 -1.1543,-4.47992 -4.388,-4.46786 -20.49701,0.0764 -40.99457,0.0897 -61.49146,0.008 -3.54205,-0.0141 -4.59301,1.51874 -4.56561,4.84824 0.11511,13.99725 -0.0836,27.99817 0.13776,41.99298 0.10925,6.90601 3.945,12.21905 8.74817,16.83459 1.52697,1.46735 3.55493,1.80854 5.60351,1.63721 4.12281,-0.34491 4.46674,2.18378 4.52234,5.383 0.0592,3.4071 -0.90283,4.85254 -4.68896,5.37268 -8.47046,1.16363 -16.92932,0.91272 -25.39972,0.89325 -3.32795,-0.008 -6.98774,1.05908 -9.55078,-2.57672 -0.51569,-0.73151 -2.49958,-0.55671 -3.80988,-0.57618 -4.49847,-0.0669 -8.9986,-0.0571 -13.4978,-0.0314 -2.70075,0.0154 -4.909,-0.10943 -4.83032,-3.91003 0.0719,-3.47461 1.36975,-4.56757 4.77093,-4.59577 7.42932,-0.0615 7.50983,-0.30438 7.53863,-7.64062 0.0111,-2.83289 0.003,-5.66589 0.005,-8.99732 z"
   id="path1"
   style="fill:#0033c1;fill-opacity:1"
   sodipodi:nodetypes="csssssscsssssssssssssssssssssssssssssssssssssscc" />
<path
   fill="#000000"
   opacity="1"
   stroke="none"
   d="m 152.90419,412.62872 c -3.78619,2.49707 -7.69884,1.31357 -11.45042,1.45111 -6.82392,0.25031 -8.65984,2.42881 -5.76003,8.68216 4.20102,9.05945 9.01744,17.83469 13.60786,26.71225 9.25727,17.90287 18.53641,35.79441 27.8164,53.68552 0.67979,1.31061 1.14233,2.78589 3.10905,4.03799 5.35362,-9.53692 10.68385,-19.03216 15.83665,-28.21136 2.41111,-0.7804 2.58608,1.69803 4.04125,1.92825 1.11308,-0.35309 1.38457,-1.38974 1.84465,-2.23553 13.77052,-25.31443 27.53448,-50.63239 41.28477,-75.95783 2.7875,-5.13403 10.83689,-7.84964 16.12565,-5.42993 1.01001,0.4621 1.78472,1.17179 1.72814,2.21405 -0.23333,4.2973 2.58225,4.26795 5.60923,4.21512 4.16455,-0.0728 8.33535,0.10632 12.49634,-0.0342 3.92401,-0.13248 4.1126,2.28787 4.14566,5.22348 0.034,3.0144 -0.46582,5.85825 -4.16858,5.11414 -10.14063,-2.03781 -13.98859,4.05841 -18.13666,11.83068 -24.93889,46.72815 -50.32124,93.21964 -75.57085,139.78184 -0.69252,1.27703 -1.06526,2.84234 -3.50059,3.82727 -13.76242,-27.14881 -27.55184,-54.3509 -41.36634,-81.60251 -2.68241,0.45715 -2.82524,3.6047 -5.88279,4.09533 -1.99559,-3.81195 -4.16954,-7.84741 -6.23827,-11.93609 -10.1528,-20.06629 -20.36487,-40.10355 -30.339736,-60.25809 -2.028999,-4.0997 -4.482734,-6.34576 -9.22689,-5.65451 -4.467598,0.65097 -6.258042,-1.30661 -6.140991,-5.94272 0.307357,-12.17343 -1.032235,-11.10529 10.98616,-11.18454 5.998733,-0.0395 12.006207,0.18671 17.993937,-0.0724 3.75584,-0.16247 6.12387,1.10825 7.03815,4.74939 0.79268,3.15689 2.79288,4.05335 5.90813,3.98542 7.49497,-0.16352 14.99637,-0.0655 22.49491,-0.0238 6.23146,0.0347 6.23129,0.0657 5.71521,7.00949 z"
   id="path2"
   style="fill:#0033c1;fill-opacity:1"
   sodipodi:nodetypes="ccsssccccssscssssscccssssssssscc" />
<path
   fill="#000000"
   opacity="1"
   stroke="none"
   d="m 305.73016,496.99994 c -0.003,-9.99616 0.0691,-19.49314 -0.0346,-28.98819 -0.0747,-6.83902 -1.77838,-8.65085 -8.60724,-8.53436 -4.08966,0.0698 -5.58243,-1.27466 -5.49158,-5.43546 0.29208,-13.37488 -1.24783,-11.18008 11.01865,-11.29108 13.66006,-0.12359 27.32211,-0.0109 40.98321,-0.0421 2.95731,-0.007 5.5633,-0.12015 6.09586,4.00668 0.40228,3.11713 3.30224,3.26914 5.91861,3.24872 11.32757,-0.0884 22.65835,-0.0307 33.98141,-0.30044 4.11307,-0.098 5.69489,1.30249 5.54221,5.46426 -0.2442,6.65537 -0.0282,13.32642 -0.12815,19.98901 -0.0279,1.85639 0.64158,4.49729 -2.18298,4.83429 -3.01681,0.3599 -2.5932,-2.31247 -2.90118,-4.19607 -0.95322,-5.83008 -3.84403,-8.33972 -9.79022,-8.35193 -15.82691,-0.0324 -31.65516,0.087 -47.47995,-0.10144 -4.1774,-0.0497 -5.676,1.42538 -5.45716,5.52399 0.24839,4.6517 0.13846,9.32803 0.0408,13.99066 -0.0576,2.74811 1.04471,3.95468 3.83368,3.88177 3.82892,-0.10009 7.66309,-0.0357 11.49445,0.009 3.54532,0.0415 7.25775,-0.8284 9.21237,3.81454 0.92587,2.19928 3.86667,1.48972 5.96851,1.47315 3.38098,-0.0266 4.59582,1.40048 4.65316,4.83169 0.171,10.23453 0.30002,10.22812 -9.73446,10.21738 -5.66431,-0.006 -11.33035,0.0894 -16.99231,-0.0243 -3.41855,-0.0686 -4.75757,1.39172 -4.70963,4.78613 0.11997,8.49481 0.1297,16.99353 0.006,25.48816 -0.0478,3.28284 1.31976,4.34851 4.48007,4.33606 20.15805,-0.0795 40.3168,0.009 60.47479,-0.0751 4.68292,-0.0196 7.61932,-3.21661 8.55453,-8.75018 0.28699,-1.69812 -0.38015,-4.09357 2.53977,-3.85089 2.69055,0.22351 2.2247,2.51782 2.23962,4.24823 0.0632,7.32977 -0.008,14.66077 0.0571,21.99054 0.0233,2.60931 -0.8251,4.23328 -3.70041,4.02643 -2.46655,-0.17731 -4.21774,0.77209 -5.09411,3.10181 -1.18552,3.15167 -3.51261,3.91607 -6.70224,3.90435 -24.9896,-0.0918 -49.97986,-0.1018 -74.96942,-0.006 -3.83802,0.0148 -6.12864,-0.93213 -5.83765,-5.26904 0.19385,-2.88947 -1.60388,-3.64997 -4.16492,-3.59815 -3.6633,0.0741 -7.33063,-0.0601 -10.99456,-0.001 -2.47587,0.0397 -3.75525,-1.00226 -3.71656,-3.5282 0.0367,-2.39355 0.57529,-4.02838 3.5842,-4.26483 6.77759,-0.53284 7.97543,-1.99091 7.99591,-9.07776 0.0452,-15.66009 0.0143,-31.32037 0.0143,-47.48065 z"
   id="path3"
   style="fill:#0033c1;fill-opacity:1"
   sodipodi:nodetypes="cssssssssssssssssssssssssssssssssssssssscscc" />
<path
   fill="#000000"
   opacity="1"
   stroke="none"
   d="m 505.82324,462.94214 c -15.41138,1.17169 -27.49109,8.11767 -36.98483,19.31583 -14.7305,17.37509 -12.70789,40.83871 4.38547,56.34878 20.95794,19.01672 54.42743,17.33423 73.26806,-3.75317 1.8714,-2.09455 3.56507,-4.43573 4.90638,-6.89923 3.59906,-6.60987 1.55261,-10.0525 -5.92872,-10.03107 -3.65503,0.0104 -6.8861,0.1098 -7.98248,-4.59686 -0.60235,-2.58613 -3.39288,-2.29328 -5.52759,-2.30591 -3.20904,-0.019 -4.27966,-1.57376 -4.30181,-4.69077 -0.0237,-3.32031 1.46948,-4.42053 4.52465,-4.41348 13.49237,0.0311 26.98529,0.0594 40.47718,-0.0393 5.71734,-0.0418 4.92388,3.39499 4.29235,6.90116 -0.49963,0.27884 -0.77868,0.56698 -1.06683,0.57632 -9.84503,0.31983 -9.88953,0.30576 -12.08594,9.84131 -4.01648,17.43695 -13.85034,30.36774 -29.76245,38.61328 -1.94531,1.00806 -4.08935,1.77991 -3.74768,4.5943 0.43378,3.57239 -1.92535,4.3692 -4.70917,5.17542 -34.14794,9.89001 -79.69683,-9.33918 -86.60809,-53.45966 -0.77902,-4.9733 -3.92511,-3.85584 -6.90262,-4.14554 -2.5766,-0.2507 -6.06598,1.06915 -6.37152,-3.47775 -0.18466,-2.74799 0.5589,-4.59091 3.73666,-4.54733 1.83133,0.0251 3.66492,-0.0908 5.49567,-0.0537 2.38944,0.0484 3.56265,-0.90045 3.88956,-3.43454 3.62118,-28.07077 27.52206,-50.88693 56.78418,-55.25604 3.44784,-0.5148 6.95987,-0.58475 10.43033,-0.96789 2.79098,-0.30814 4.64383,0.60995 4.81927,3.58227 0.1741,2.94864 1.7558,3.6359 4.48627,4.0669 12.58417,1.98626 23.86517,7.11462 33.83771,15.04178 4.62072,3.67297 4.59631,4.74841 0.26855,9.47491 -0.32697,-0.0184 -0.7688,0.091 -0.96399,-0.0805 -12.2074,-10.7228 -27.3761,-10.4541 -42.65857,-11.37948 z"
   id="path4"
   style="fill:#0033c1;fill-opacity:1"
   sodipodi:nodetypes="cssssssssssccssscssssssssssscccc" />
<path
   fill="#000000"
   opacity="1"
   stroke="none"
   d="m 624.03888,563.93915 c -5.15875,0.0642 -10.45215,-1.32849 -12.44708,5.08307 -0.0823,0.26452 -0.4682,0.57769 -0.74781,0.6167 -7.28076,1.01654 -14.76294,1.48217 -21.79266,-0.15052 -3.40008,-0.78973 -0.95593,-5.92517 -1.30835,-9.06555 -0.24939,-2.22247 1.4458,-2.90802 3.28394,-2.67004 3.92645,0.50824 5.52008,-1.78424 7.04242,-4.90326 6.42962,-13.17267 13.14257,-26.20703 19.55175,-39.38928 1.55286,-3.19382 3.29779,-5.28699 7.13629,-4.75885 2.91138,0.40057 4.34827,-1.41874 4.95051,-3.8765 1.04016,-4.24472 3.79827,-5.22357 7.8197,-5.0864 7.11297,0.24262 14.24029,0.068 22.21869,0.068 -3.09052,-8.81241 -7.55085,-15.85187 -12.01654,-24.30875 -3.01093,6.52646 -6.99091,9.47183 -13.76703,6.38736 4.65027,-14.23596 15.72113,-24.75406 20.67334,-38.32709 3.14563,0.47562 3.55444,2.47312 4.36908,4.01749 18.18365,34.4733 36.44317,68.90747 54.39404,103.50171 2.56012,4.93365 5.35632,7.61658 11.08002,6.67493 2.67254,-0.43958 5.02063,0.0698 4.81762,3.81042 -0.13305,2.44995 -1.00885,3.72369 -3.57409,3.67395 -2.49799,-0.0485 -4.99842,0.0482 -7.49762,0.0382 -2.2395,-0.009 -4.38538,-0.0335 -4.98468,2.8941 -0.38983,1.90479 -2.07392,1.95044 -3.58258,1.9726 -3.33167,0.0488 -6.66449,0.0219 -9.99683,0.0194 -0.33221,-2.5e-4 -0.78253,0.0873 -0.97913,-0.0884 -3.85626,-3.44764 -8.13366,-5.4057 -13.52539,-5.42157 -2.00512,-0.006 -2.03649,-5.3487 0.0436,-6.69501 0.93036,-0.60217 2.32062,-0.38385 3.29145,-1.86115 -1.03235,-3.97259 -3.49225,-7.55462 -5.35614,-11.37823 -3.72101,-7.63336 -7.64905,-15.16583 -11.37024,-22.79919 -1.22327,-2.50928 -2.77503,-3.79542 -5.75788,-3.71558 -7.16027,0.19183 -14.33178,0.20257 -21.49237,0.0253 -2.99731,-0.0742 -4.50403,1.22778 -5.70337,3.76312 -4.34234,9.17999 -8.89514,18.26038 -13.23938,27.43945 -2.93341,6.19825 -1.63781,8.18732 5.07776,8.26056 1.1662,0.0127 2.33258,0.0223 3.49854,0.0493 1.65448,0.0383 2.93072,0.49139 3.04352,2.48852 0.11212,1.98731 -0.67823,3.34528 -2.68952,3.46937 -3.31934,0.20483 -6.65314,0.17578 -10.46356,0.24194 z"
   id="path5"
   style="fill:#0075ee;fill-opacity:1"
   sodipodi:nodetypes="cscssscsssscccccsssssssscsscsscscssssscc" />
<path
   fill="#000000"
   opacity="1"
   stroke="none"
   d="m 684.71887,634.40869 c -2.60724,-0.1748 -4.64129,-0.8811 -6.56616,-1.91644 -1.31384,-0.70673 -2.08911,-1.75214 -1.41205,-3.26966 0.70068,-1.57043 1.89551,-2.3338 3.62463,-1.52941 2.58369,1.20214 5.16431,2.32183 8.1308,1.99969 3.30378,-0.3587 5.57416,-1.76611 6.07581,-5.33008 -1.79505,-0.906 -3.16791,0.0434 -4.56299,0.30884 -5.69873,1.08453 -10.76324,-0.76056 -13.51678,-5.22473 -2.72016,-4.4101 -2.51252,-8.90289 0.30114,-13.16962 2.65973,-4.03345 8.6604,-5.95282 13.84516,-4.56811 2.02936,0.54205 3.7268,1.47284 6.09845,0.18493 2.15564,-1.17095 3.65802,0.30036 3.62433,2.99646 -0.0834,6.66468 0.17504,13.34046 -0.11377,19.99396 -0.30713,7.07874 -5.922,10.47602 -15.52857,9.52417 m -1.54046,-15.91083 c 5.927,2.47071 10.69421,0.81678 11.51794,-4.04754 0.56537,-3.33869 -0.59076,-5.90442 -3.77033,-7.31287 -3.43536,-1.52173 -6.58825,-0.95404 -9.00036,1.93018 -2.57324,3.07684 -1.91089,6.13043 1.25275,9.43023 z"
   id="path6"
   style="fill:#0033c1;fill-opacity:1"
   sodipodi:nodetypes="csscsccssscssccsssc" />
<path
   fill="#000000"
   opacity="1"
   stroke="none"
   d="m 434.17246,594.04224 c 3.05865,-0.24323 4.18444,1.56201 5.13061,3.61377 3.69119,8.00439 7.4079,15.99719 11.06232,24.01825 0.64163,1.40832 2.0372,3.19891 -0.37577,4.17761 -1.85629,0.75274 -3.53415,0.10773 -4.65918,-1.77875 -1.23349,-2.06842 -1.58685,-5.24438 -4.5365,-5.4931 -4.12213,-0.34754 -8.31448,-0.27552 -12.44348,0.0455 -2.08502,0.16199 -2.38418,2.55798 -3.14276,4.16589 -1.31729,2.79212 -3.10409,4.25275 -6.11661,2.74103 -0.77038,-1.13287 -0.44308,-2.10278 -0.0284,-3.00678 3.81391,-8.31463 7.63605,-16.62567 11.50128,-24.9165 0.69056,-1.4812 1.30393,-3.12866 3.6085,-3.56689 m -2.42719,14.091 c -0.37985,1.7038 -2.06558,3.04956 -1.3175,5.47815 2.92941,-0.33246 6.00305,0.85614 9.10882,-0.9093 -0.96219,-3.6894 -2.16122,-6.982 -4.38501,-9.89984 -2.04993,1.19397 -2.23141,3.16113 -3.40631,5.33099 z"
   id="path7"
   style="fill:#0033c1;fill-opacity:1"
   sodipodi:nodetypes="csscsssscsscccccc" />
<path
   fill="#000000"
   opacity="1"
   stroke="none"
   d="m 736.63446,625.1554 c -5.68683,1.83941 -10.888,1.53405 -15.95642,-0.73719 -1.88648,-0.8454 -3.84277,-1.86139 -2.60645,-4.45544 1.22614,-2.57245 2.98731,-1.17414 4.60181,-0.37244 3.4505,1.7132 7.07971,1.72571 10.74231,1.01343 1.56,-0.30334 2.80737,-1.2334 3.04132,-2.9195 0.24817,-1.78851 -0.97955,-2.86633 -2.414,-3.38403 -3.12384,-1.12744 -6.34424,-1.98382 -9.49945,-3.0285 -4.0119,-1.32831 -6.73102,-3.9408 -6.62781,-8.34747 0.10712,-4.57502 2.96771,-7.18018 7.21784,-8.46595 4.50549,-1.36297 8.89947,-0.90326 13.21099,0.72058 1.62989,0.6139 3.03382,1.50116 2.1673,3.72254 -0.82971,2.1272 -2.26251,2.15075 -4.0152,1.34826 -2.84002,-1.30029 -5.82635,-1.36059 -8.8222,-0.8927 -1.89746,0.29633 -3.64801,1.16272 -3.84058,3.32532 -0.177,1.98926 1.42615,2.9773 3.01087,3.5315 2.66351,0.93145 5.42743,1.57147 8.12646,2.4071 3.66468,1.13464 6.87006,2.88672 7.44171,7.15546 0.58863,4.39544 -1.67975,7.27606 -5.7785,9.37903 z"
   id="path8"
   style="fill:#0033c1;fill-opacity:1"
   sodipodi:nodetypes="csssssssssssssssssc" />
<path
   fill="#000000"
   opacity="1"
   stroke="none"
   d="m 590.56885,624.74536 c -3.0221,-2.28741 -3.86884,-5.00287 -2.8996,-8.19 1.00275,-3.29743 3.66535,-4.56958 6.80914,-5.00934 2.73468,-0.38263 5.48749,-0.63617 8.70697,-1.00049 -2.15301,-4.92236 -5.53436,-4.64819 -9.19165,-3.46087 -1.9884,0.64544 -4.3399,2.33783 -5.30389,-0.94745 -0.9126,-3.11023 2.06683,-3.39124 3.93896,-4.02588 10.01026,-3.39356 16.52033,1.19452 16.59247,11.56946 0.0104,1.49786 0.0783,3.00073 -0.0154,4.49273 -0.1438,2.29016 0.7088,4.80811 -0.73712,6.81543 -1.74091,2.41706 -4.06397,-0.28137 -5.93536,0.24884 -3.96796,1.12415 -7.79523,1.69587 -11.96454,-0.49243 m 6.18719,-3.20825 c 3.14832,-0.15271 5.65656,-1.11975 6.37879,-4.64832 -2.1507,-1.18292 -4.16602,-0.77118 -6.11048,-0.76153 -1.50531,0.007 -3.14575,0.20294 -3.49066,2.07849 -0.34662,1.88489 1.13886,2.54163 3.22235,3.33136 z"
   id="path9"
   style="fill:#0033c1;fill-opacity:1"
   sodipodi:nodetypes="csscssssssscccssc" />
<path
   fill="#000000"
   opacity="1"
   stroke="none"
   d="m 563.20727,623.67249 c -6.50152,3.65283 -12.93048,3.29498 -17.38793,-0.70295 -3.91437,-3.5108 -5.13184,-9.08575 -3.08826,-14.14148 2.03503,-5.03448 7.26044,-8.08532 12.80401,-7.47546 5.88215,0.64709 9.66724,4.03607 10.72956,9.45294 0.68603,3.49835 -0.22455,5.41528 -4.20954,5.29212 -3.97332,-0.12293 -7.95733,0.0853 -11.93597,0.17968 -0.29926,0.007 -0.59265,0.26404 -0.88751,0.40747 1.37817,4.44593 4.37408,5.38733 10.62518,3.24854 1.24408,-0.42566 2.38751,-1.32092 3.60639,0.004 1.07885,1.17304 1.16693,2.32068 -0.25593,3.73481 m -3.07312,-13.42035 c -3.6007,-5.52967 -8.28692,-5.47907 -11.71502,0.401 3.89648,1.19342 7.68463,1.25952 11.71502,-0.401 z"
   id="path10"
   style="fill:#0033c1;fill-opacity:1"
   sodipodi:nodetypes="csssssscsscccc" />
<path
   fill="#000000"
   opacity="1"
   stroke="none"
   d="m 515.22626,616.04895 c -2.33332,0.26947 -4.41834,-0.61462 -6.46573,1.21368 2.78769,4.33942 6.71518,4.29779 10.78909,2.94648 1.98285,-0.65778 3.97064,-1.89826 5.00263,0.72833 1.04565,2.66131 -1.59595,3.30597 -3.2547,4.11389 -5.26966,2.56696 -12.48325,1.1673 -16.05948,-2.95172 -3.56561,-4.10681 -4.03531,-10.70007 -1.0936,-15.35419 2.88751,-4.56836 8.90448,-6.60791 14.50165,-4.90039 5.05914,1.54334 7.4032,5.32135 8.27276,10.23187 0.44446,2.50959 -0.84076,3.79584 -3.27404,3.8913 -2.65216,0.10401 -5.31012,0.0624 -8.41858,0.0807 m 4.43988,-7.51843 c -5.25061,-3.55347 -8.48822,-2.95392 -10.50772,2.1784 3.0209,1.34186 6.18338,0.92597 9.28689,0.75562 1.31446,-0.0721 2.20514,-0.80084 1.22083,-2.93402 z"
   id="path11"
   style="fill:#0033c1;fill-opacity:1"
   sodipodi:nodetypes="ccsscssssscccsc" />
<path
   fill="#000000"
   opacity="1"
   stroke="none"
   d="m 827.03394,620.71082 c -3.10456,-6.84913 -2.52863,-11.91382 1.56188,-15.95807 3.66053,-3.6189 9.49018,-4.50934 14.38929,-2.25141 2.53802,1.16968 4.37317,3.0094 5.51971,5.53192 2.57709,5.66962 1.11688,7.86853 -5.09729,8.06726 -3.75586,0.12 -7.58783,-0.7091 -11.35162,0.51471 1.76727,4.25263 5.0086,5.4657 10.09521,3.62958 2.14051,-0.77264 4.3703,-2.02777 5.32343,0.97827 0.83246,2.62537 -1.90784,3.17694 -3.56946,3.93018 -5.77734,2.61859 -11.73273,1.06543 -16.87115,-4.44244 m 5.78479,-12.60022 c -0.89569,1.17828 -2.35566,2.93823 0.20635,3.23541 3.36896,0.39081 7.13373,1.38653 10.48902,-1.64325 -3.06287,-3.60449 -6.26129,-4.49463 -10.69537,-1.59216 z"
   id="path12"
   style="fill:#0033c1;fill-opacity:1"
   sodipodi:nodetypes="csssscsscccscc" />
<path
   fill="#000000"
   opacity="1"
   stroke="none"
   d="m 657.66138,601.39032 c 9.14178,0.0566 12.41101,3.2738 12.5122,11.9397 0.0369,3.15301 0.0156,6.30731 -0.0316,9.4602 -0.0245,1.63391 -0.5669,3.01361 -2.47657,3.11383 -2.13006,0.11194 -2.93359,-1.19684 -2.96002,-3.13012 -0.0431,-3.15326 0.0381,-6.31135 -0.10852,-9.45929 -0.18371,-3.94654 -1.86902,-6.99463 -6.25006,-6.76966 -4.07043,0.20905 -6.16754,2.81702 -6.13232,7.00159 0.0252,2.98712 -0.02,5.97504 -0.0562,8.96234 -0.0223,1.83868 -0.5896,3.36774 -2.7337,3.42896 -2.21741,0.0632 -2.72461,-1.47321 -2.72339,-3.32673 0.004,-5.97515 0.0162,-11.95031 0.0128,-17.92547 -0.001,-2.42676 1.54736,-3.74725 3.46063,-2.72241 2.72125,1.45745 4.77252,-0.23889 7.48682,-0.57294 z"
   id="path13"
   style="fill:#0033c1;fill-opacity:1"
   sodipodi:nodetypes="csssssssssssscc" />
<path
   fill="#000000"
   opacity="1"
   stroke="none"
   d="m 759.58453,620.74603 c 3.92658,-0.979 4.90509,-3.70825 5.05701,-6.88409 0.14276,-2.98615 0.0748,-5.98212 0.11615,-8.97351 0.0267,-1.93439 0.77612,-3.19385 2.95563,-3.12104 1.95843,0.0656 2.54132,1.31421 2.54602,2.98377 0.0175,6.14935 0.0213,12.29889 -0.0179,18.44812 -0.0133,2.08197 -1.41296,3.51343 -3.164,2.61786 -2.6134,-1.33661 -4.6817,-0.30164 -7.07409,0.22778 -7.26471,1.60761 -12.88587,-2.78461 -13.23389,-10.26929 -0.16962,-3.64801 -0.0325,-7.31152 0.008,-10.96753 0.0184,-1.65875 0.58423,-2.92504 2.53576,-3.01788 2.14801,-0.10211 3.00336,1.07648 3.02948,3.0426 0.0419,3.1576 -0.0125,6.31739 0.0798,9.47309 0.12701,4.33996 1.98022,6.97918 7.16192,6.44012 z"
   id="path14"
   style="fill:#0033c1;fill-opacity:1"
   sodipodi:nodetypes="csssssssssssscc" />
<path
   fill="#000000"
   opacity="1"
   stroke="none"
   d="m 888.01654,606.66138 c -0.68573,-0.17127 -1.0127,-0.27826 -1.33948,-0.27802 -2.2464,0.002 -5.52124,-0.86548 -5.86828,2.04633 -0.35987,3.01959 3.14471,2.60431 5.22516,3.22058 1.73889,0.51507 3.64825,0.66791 5.22381,1.48132 4.61694,2.38379 4.88648,7.90833 0.67932,10.99384 -3.72345,2.73095 -12.37677,2.84869 -16.20416,0.29144 -1.25079,-0.83569 -2.00287,-1.7124 -1.27917,-3.26715 0.815,-1.75098 2.09893,-1.64001 3.74121,-1.26288 7.41168,1.70233 7.4226,1.65485 10.29339,-1.16345 -1.28424,-2.53082 -3.81805,-2.15851 -6.0061,-2.57092 -5.81592,-1.09626 -8.12994,-3.42646 -7.7915,-7.83661 0.32696,-4.26203 3.79632,-6.81598 9.39038,-6.8075 1.82141,0.003 3.68377,0.025 5.45239,0.39612 1.82586,0.38312 4.44372,0.52368 3.69653,3.48315 -0.72497,2.87159 -2.91485,2.01331 -5.2135,1.27375 z"
   id="path15"
   style="fill:#0033c1;fill-opacity:1"
   sodipodi:nodetypes="csssssssccsssssc" />
<path
   fill="#000000"
   opacity="1"
   stroke="none"
   d="m 854.35773,613.73889 c -3.46814,-5.65411 -1.93451,-10.01544 3.81445,-11.81915 3.63165,-1.13941 7.23731,-0.58954 10.79016,0.41363 1.5575,0.43982 2.81311,1.2854 2.13391,3.22522 -0.59552,1.70081 -1.85681,2.28882 -3.55554,1.68915 -1.89984,-0.67041 -3.80804,-1.17255 -5.84656,-0.91431 -1.36938,0.17347 -2.79797,0.48365 -3.0783,2.0326 -0.31074,1.71728 1.15234,2.23987 2.43548,2.59747 2.23175,0.62201 4.52435,1.02979 6.74713,1.67908 2.60455,0.76098 4.27063,2.38562 4.54059,5.27649 0.2804,3.00372 -0.90595,5.24475 -3.44342,6.64679 -4.72528,2.6109 -9.6134,2.11371 -14.43817,0.26782 -1.36707,-0.52301 -2.88196,-1.27496 -2.27789,-3.26306 0.6419,-2.11267 2.09057,-2.16803 3.95239,-1.60736 3.42682,1.03161 6.92456,2.15124 10.617,-0.82343 -3.20239,-4.28326 -8.85907,-2.03839 -12.39123,-5.40094 z"
   id="path16"
   style="fill:#0033c1;fill-opacity:1"
   sodipodi:nodetypes="cssscssssssssccc" />
<path
   fill="#000000"
   opacity="1"
   stroke="none"
   d="m 459.06415,617.73114 c 3.11297,4.10944 6.6954,3.92737 10.38977,1.83447 1.79941,-1.01941 3.45694,-1.64087 4.83163,0.2273 1.64374,2.2337 -0.51626,3.33832 -1.84167,4.35553 -4.77628,3.66571 -13.27286,2.54821 -17.28446,-2.13953 -4.10327,-4.79486 -3.96093,-12.55462 0.31009,-16.90253 4.47623,-4.55682 12.68927,-5.28601 17.39667,-1.46521 1.22693,0.99585 3.0596,2.09748 1.58484,4.02613 -1.08341,1.41687 -2.67734,1.90655 -4.38675,0.65936 -3.15653,-2.3031 -6.38821,-2.82336 -9.55753,-0.0718 -2.96401,2.57337 -2.84988,5.77435 -1.44259,9.47632 z"
   id="path17"
   style="fill:#0033c1;fill-opacity:1"
   sodipodi:nodetypes="cssssssssscc" />
<path
   fill="#000000"
   opacity="1"
   stroke="none"
   d="m 483.21295,614.72754 c 2.09168,6.23913 5.75495,7.86499 11.12723,4.97406 1.99039,-1.07105 3.85486,-1.98993 5.13498,0.27081 1.39343,2.46088 -1.12348,3.53223 -2.63739,4.55432 -4.94473,3.3385 -12.92945,1.96631 -16.79975,-2.71515 -3.98046,-4.81463 -3.71493,-12.59814 0.57709,-16.91632 4.21399,-4.23962 12.44946,-4.96747 17.06394,-1.44891 1.2915,0.98474 3.05783,2.10724 1.85278,4.0141 -1.33399,2.11096 -3.10757,1.59466 -5.17288,0.50153 -6.29087,-3.32978 -10.4513,-0.86902 -11.146,6.76556 z"
   id="path18"
   style="fill:#0033c1;fill-opacity:1"
   sodipodi:nodetypes="cssssssssc" />
<path
   fill="#000000"
   opacity="1"
   stroke="none"
   d="m 809.67084,625.91821 c -8.25623,-3.19317 -11.542,-9.47888 -8.97071,-16.50824 2.35596,-6.44073 9.34723,-9.69342 16.34638,-7.54077 1.09192,0.33582 2.23907,0.80243 3.09454,1.52411 1.28766,1.08624 3.53736,2.11334 1.97247,4.32135 -1.26501,1.78491 -2.88171,1.34784 -4.77618,0.29602 -5.12439,-2.84479 -10.04529,-1.17248 -11.09228,3.59912 -0.62433,2.84577 -0.51258,5.72864 1.98468,7.77741 2.59655,2.13018 5.57983,2.11908 8.39068,0.57464 2.21234,-1.21557 4.63568,-2.48736 5.8183,0.47663 0.98694,2.47357 -1.77661,3.58093 -3.62701,4.5412 -2.74225,1.42309 -5.72205,1.57067 -9.14087,0.93853 z"
   id="path19"
   style="fill:#0033c1;fill-opacity:1"
   sodipodi:nodetypes="csssscsssssc" />
<path
   fill="#000000"
   opacity="1"
   stroke="none"
   d="m 776.42816,607.76428 c 4.68769,-6.38092 11.75604,-8.36206 17.65833,-5.07013 1.77356,0.9892 4.44494,2.12091 3.09381,4.7594 -1.37085,2.677 -3.51978,1.30921 -5.49689,0.12757 -3.50623,-2.09552 -6.80548,-1.45447 -9.38049,1.60669 -2.45301,2.91619 -2.39539,6.20892 -0.032,9.14056 2.74628,3.40643 6.35328,3.41876 9.86634,1.4209 1.98877,-1.13092 3.91144,-1.9447 5.12011,0.31714 1.29206,2.41784 -1.13525,3.51184 -2.74023,4.5111 -4.49878,2.80121 -11.25275,2.10102 -15.41992,-1.44018 -3.9931,-3.39331 -5.04559,-8.93103 -2.66907,-15.37305 z"
   id="path20"
   style="fill:#0033c1;fill-opacity:1"
   sodipodi:nodetypes="cssssssscscc" />
<path
   fill="#000000"
   opacity="1"
   stroke="none"
   d="m 950.12512,395.58246 c 0.0702,4.09253 0.1958,7.75586 0.0606,11.40957 -0.0669,1.80759 0.87646,4.79801 -1.91577,4.85212 -3.1695,0.0614 -2.01984,-3.11875 -2.33313,-5.05042 -0.1305,-0.80456 -0.0216,-1.64801 -0.0216,-3.60467 -1.38147,2.88256 -2.27533,4.84802 -3.25519,6.76968 -1.59106,3.12045 -3.33886,3.01266 -4.91473,0.0327 -1.05481,-1.99469 -1.86578,-4.11834 -3.28162,-7.2973 -0.14099,3.15766 -0.18896,5.0821 -0.32629,7.00012 -0.0886,1.23548 -0.4845,2.34702 -2.03522,2.27494 -1.23065,-0.0572 -1.79138,-1.03992 -1.81073,-2.0221 -0.0949,-4.81509 -0.10388,-9.63348 -0.0352,-14.44912 0.018,-1.258 0.8244,-2.20124 2.15295,-2.38712 1.57696,-0.2207 2.45209,0.73288 3.02747,2.05731 1.38763,3.19388 2.77362,6.38843 4.44818,10.24597 2.50165,-3.06842 2.86883,-6.64718 4.57141,-9.50644 1.54291,-2.59106 3.17431,-4.73434 5.66888,-0.32525 z"
   id="path21"
   style="fill:#0033c1;fill-opacity:1"
   sodipodi:nodetypes="cssscsscsssssscscc" />
<path
   fill="#000000"
   opacity="1"
   stroke="none"
   d="m 620.76404,625.66052 c -3.99072,-1.95447 -4.03674,-5.21094 -4.25281,-8.64862 -0.25287,-4.02228 1.54767,-8.74933 -3.52637,-11.49231 -1.16296,-0.62866 -1.02453,-3.11273 0.30793,-3.31506 3.59472,-0.54584 2.51452,-8.21839 7.25512,-5.21118 2.32752,1.47638 3.43866,4.53106 6.9618,5.48437 1.75537,0.47498 0.807,3.26245 -1.90101,3.85901 -6.61151,1.45673 -2.53552,6.73596 -3.33325,10.2038 -0.68872,2.99414 1.17932,4.6391 4.38861,4.34155 1.83954,-0.17047 2.93268,0.79968 3.01886,2.51697 0.0814,1.62127 -1.37054,2.17462 -2.64801,2.52484 -1.94769,0.53424 -3.93707,0.51227 -6.27087,-0.26337 z"
   id="path22"
   style="fill:#0033c1;fill-opacity:1"
   sodipodi:nodetypes="cssssscssscc" />
<path
   fill="#000000"
   opacity="1"
   stroke="none"
   d="m 888.90088,391.70306 c 2.83002,0.48023 6.03174,-1.33163 7.12579,2.49454 1.33411,4.66559 -0.26965,6.87592 -5.16022,6.88571 -4.13275,0.008 -8.26568,-0.14621 -12.39868,-0.21902 -3.32727,-0.0586 -4.61352,-1.83548 -4.68359,-5.05597 -0.0749,-3.44541 1.80432,-4.18405 4.71002,-4.10858 3.30506,0.0858 6.61432,0.01 10.40668,0.003 z"
   id="path23"
   style="fill:#0033c1;fill-opacity:1"
   sodipodi:nodetypes="cssssscc" />
<path
   fill="#000000"
   opacity="1"
   stroke="none"
   d="m 571.15424,604.50958 c 0.35016,-1.92071 1.18957,-3.14551 2.73602,-2.69903 2.8338,0.81823 5.49585,0.38195 8.24371,-0.25861 1.42255,-0.33166 2.67462,0.13416 2.96265,1.84003 0.28497,1.68768 -0.16583,3.12317 -2.02417,3.38293 -5.5589,0.77722 -6.20953,4.64826 -6.05652,9.16663 0.0731,2.15771 0.0244,4.3244 -0.0788,6.48175 -0.0953,1.99383 -0.71631,3.69391 -3.18994,3.53705 -2.19922,-0.13953 -2.62677,-1.80274 -2.64099,-3.55274 -0.0474,-5.81854 -0.0146,-11.63775 0.048,-17.89801 z"
   id="path24"
   style="fill:#0033c1;fill-opacity:1"
   sodipodi:nodetypes="cssscsssscc" />
<path
   fill="#000000"
   opacity="1"
   stroke="none"
   d="m 537.24817,615.95288 c -0.0148,2.65082 -0.005,4.8111 -0.0518,6.97003 -0.0364,1.67749 -0.67255,2.94745 -2.56903,3.02527 -2.17218,0.0891 -2.90216,-1.25946 -2.90631,-3.1734 -0.0199,-9.13782 -0.028,-18.27563 -0.0263,-27.41345 3.1e-4,-1.69757 0.63788,-2.95386 2.55262,-2.99225 2.10052,-0.0422 2.96398,1.20172 2.97009,3.15552 0.0207,6.64575 0.0221,13.29144 0.0307,20.42828 z"
   id="path25"
   style="fill:#0033c1;fill-opacity:1"
   sodipodi:nodetypes="csssssscc" />
<path
   fill="#000000"
   opacity="1"
   stroke="none"
   d="m 637.87262,601.94855 c 2.836,7.36474 1.18567,14.77722 1.35785,22.10583 0.0317,1.35285 -1.14331,1.90522 -2.44385,1.92401 -1.55505,0.0225 -2.71295,-0.7807 -2.73297,-2.27484 -0.0883,-6.60534 -0.10669,-13.21533 0.064,-19.81805 0.047,-1.81787 1.6604,-2.26447 3.75501,-1.93695 z"
   id="path26"
   style="fill:#0033c1;fill-opacity:1"
   sodipodi:nodetypes="csscscc" />
<path
   fill="#000000"
   opacity="1"
   stroke="none"
   d="m 918.76038,403.1868 c 0.0134,-3.11521 0.44726,-5.97461 -3.49109,-6.36469 -1.03101,-0.10211 -1.83899,-0.85986 -1.82129,-2.03024 0.0186,-1.2294 0.93506,-1.77393 1.98254,-1.78412 3.65113,-0.0356 7.30426,0.005 10.95447,0.0996 0.87048,0.0225 1.56464,0.62116 1.76642,1.51062 0.20318,0.89588 -0.13031,1.88138 -1.01923,1.99283 -4.92187,0.61719 -3.87097,4.30597 -4.21618,7.51584 -0.28913,2.68878 1.56451,7.51849 -2.12366,7.4895 -3.71436,-0.0292 -1.30701,-4.86191 -2.02551,-7.47586 -0.0425,-0.1546 -0.006,-0.33099 -0.006,-0.95352 z"
   id="path27"
   style="fill:#0033c1;fill-opacity:1"
   sodipodi:nodetypes="cssssssssscc" />
<path
   fill="#000000"
   opacity="1"
   stroke="none"
   d="m 857.01465,400.4115 c -2.96753,-1.10712 -2.32056,-3.25705 -1.93701,-5.13739 0.37115,-1.81989 2.08892,-1.98843 3.56958,-2.06693 2.64789,-0.14035 5.3045,-0.13391 7.9577,-0.15194 2.71814,-0.0185 3.76703,1.38186 3.75549,4.06524 -0.0122,2.84659 -1.44745,3.8772 -4.02136,3.78366 -2.98071,-0.10833 -5.9588,-0.2919 -9.3244,-0.49264 z"
   id="path28"
   style="fill:#0033c1;fill-opacity:1"
   sodipodi:nodetypes="csssssc" />
<path
   fill="#000000"
   opacity="1"
   stroke="none"
   d="m 638.58643,592.26208 c 1.89831,1.76673 2.07586,3.42554 0.50842,5.01539 -1.18048,1.19738 -2.68469,1.32403 -4.10748,0.45959 -1.24463,-0.75616 -1.78534,-2.00665 -1.42078,-3.43848 0.64667,-2.53955 2.47052,-2.83233 5.01984,-2.0365 z"
   id="path29"
   style="fill:#0033c1;fill-opacity:1"
   sodipodi:nodetypes="csssc" />
</svg>
